<svg width="384" height="491" viewBox="0 0 384 491" fill="none" xmlns="http://www.w3.org/2000/svg">
<g filter="url(#filter0_d_12_176)">
<path d="M123.38 392.84C101.62 392.84 81.78 387.08 63.86 375.56C45.94 364.04 31.54 347.72 20.66 326.6C10.1 305.48 4.82 280.68 4.82 252.2C4.82 233.96 7.54 216.36 12.98 199.4C18.42 182.12 25.14 166.6 33.14 152.84C41.14 139.08 49.3 128.2 57.62 120.2C66.26 111.88 73.62 107.72 79.7 107.72C81.94 107.72 84.18 108.04 86.42 108.68C89.94 89.16 96.82 71.56 107.06 55.88C117.62 39.88 130.9 27.24 146.9 17.96C163.22 8.67998 181.3 4.03998 201.14 4.03998C218.42 4.03998 233.3 10.92 245.78 24.68C258.26 38.12 267.86 56.04 274.58 78.44C281.62 100.84 285.14 125.64 285.14 152.84C285.14 192.52 279.06 228.68 266.9 261.32C254.74 293.64 239.22 320.52 220.34 341.96C243.38 366.6 267.86 389 293.78 409.16C319.7 429.64 343.54 446.6 365.3 460.04C372.02 464.2 375.38 468.2 375.38 472.04C375.38 473.96 374.26 475.88 372.02 477.8C370.1 479.72 364.98 480.68 356.66 480.68C347.06 480.68 333.14 476.04 314.9 466.76C296.98 457.48 277.14 444.36 255.38 427.4C233.94 410.76 212.82 390.92 192.02 367.88C169.62 384.52 146.74 392.84 123.38 392.84ZM165.62 336.2C159.22 328.2 153.14 319.88 147.38 311.24C141.62 302.28 136.18 293.16 131.06 283.88C129.78 281.32 128.5 278.6 127.22 275.72C126.26 272.52 125.78 269.64 125.78 267.08C125.78 262.92 127.54 259.4 131.06 256.52C134.58 253.32 138.42 251.72 142.58 251.72C145.46 251.72 148.5 252.68 151.7 254.6C155.22 256.52 158.42 260.2 161.3 265.64C165.78 273.32 170.58 280.84 175.7 288.2C181.14 295.56 186.74 302.92 192.5 310.28C203.06 296.52 211.86 280.2 218.9 261.32C225.94 242.44 231.22 222.28 234.74 200.84C238.26 179.4 240.02 157.64 240.02 135.56C240.02 106.76 238.1 84.04 234.26 67.4C230.42 50.76 223.54 42.44 213.62 42.44C198.9 42.44 184.5 45.32 170.42 51.08C156.34 56.84 144.66 66.44 135.38 79.88C126.42 93.32 121.94 111.56 121.94 134.6C121.94 150.28 115.54 158.12 102.74 158.12C98.58 158.12 95.06 157.48 92.18 156.2C89.62 154.92 87.7 152.52 86.42 149C78.42 159.24 71.38 170.92 65.3 184.04C59.22 196.84 54.42 210.28 50.9 224.36C47.7 238.12 46.1 251.24 46.1 263.72C46.1 293.48 52.18 315.72 64.34 330.44C76.82 344.84 93.78 352.04 115.22 352.04C124.82 352.04 133.78 350.76 142.1 348.2C150.42 345.32 158.26 341.32 165.62 336.2Z" fill="#858D71"/>
</g>
<defs>
<filter id="filter0_d_12_176" x="0.419946" y="0.640039" width="383.36" height="489.44" filterUnits="userSpaceOnUse" color-interpolation-filters="sRGB">
<feFlood flood-opacity="0" result="BackgroundImageFix"/>
<feColorMatrix in="SourceAlpha" type="matrix" values="0 0 0 0 0 0 0 0 0 0 0 0 0 0 0 0 0 0 127 0" result="hardAlpha"/>
<feOffset dx="2" dy="3"/>
<feGaussianBlur stdDeviation="3.2"/>
<feComposite in2="hardAlpha" operator="out"/>
<feColorMatrix type="matrix" values="0 0 0 0 1 0 0 0 0 1 0 0 0 0 1 0 0 0 1 0"/>
<feBlend mode="normal" in2="BackgroundImageFix" result="effect1_dropShadow_12_176"/>
<feBlend mode="normal" in="SourceGraphic" in2="effect1_dropShadow_12_176" result="shape"/>
</filter>
</defs>
</svg>
