<svg width="587" height="566" viewBox="0 0 587 566" fill="none" xmlns="http://www.w3.org/2000/svg">
<path d="M327.204 518.408C470.358 518.408 586.408 402.358 586.408 259.204C586.408 116.05 470.358 0 327.204 0C184.05 0 68 116.05 68 259.204C68 402.358 184.05 518.408 327.204 518.408Z" fill="#FFB327"/>
<path fill-rule="evenodd" clip-rule="evenodd" d="M115.233 407.344C162.092 474.35 239.826 518.173 327.796 518.173C470.951 518.173 587 402.123 587 258.969C587 197.58 565.659 141.175 529.991 96.7695C559.387 138.803 576.632 189.96 576.632 245.145C576.632 388.299 460.582 504.349 317.428 504.349C235.663 504.349 162.74 466.489 115.233 407.344Z" fill="#D98E03"/>
<ellipse cx="202.09" cy="97.1729" rx="39.3045" ry="16.2007" transform="rotate(-38.8375 202.09 97.1729)" fill="#D98E03"/>
<ellipse cx="252.348" cy="106.043" rx="9.0765" ry="12.5561" transform="rotate(90.9025 252.348 106.043)" fill="#D98E03"/>
<ellipse cx="217.999" cy="140.044" rx="10.8471" ry="20.9568" transform="rotate(97.0054 217.999 140.044)" fill="#D98E03"/>
<ellipse cx="430.661" cy="395.586" rx="34.8477" ry="26.4546" transform="rotate(42.6554 430.661 395.586)" fill="#D98E03"/>
<ellipse cx="469.332" cy="369.209" rx="9.0765" ry="12.5561" transform="rotate(-143.703 469.332 369.209)" fill="#D98E03"/>
<ellipse cx="404.302" cy="426.411" rx="5.10652" ry="9.86594" transform="rotate(178.498 404.302 426.411)" fill="#D98E03"/>
</svg>
