<svg width="283" height="214" viewBox="0 0 283 214" fill="none" xmlns="http://www.w3.org/2000/svg">
<g clip-path="url(#clip0_27401_362)">
<g filter="url(#filter0_d_27401_362)">
<rect width="283" height="214" rx="15" fill="white"/>
</g>
<path d="M130.072 133.411C136.24 133.411 141.24 129.034 141.24 123.635C141.24 118.235 136.24 113.858 130.072 113.858C123.904 113.858 118.904 118.235 118.904 123.635C118.904 129.034 123.904 133.411 130.072 133.411Z" fill="#FEDC62"/>
<path d="M196.788 132.861C203.036 131.219 209.678 129.506 214.633 125.601C219.061 122.111 222.051 116.783 220.216 111.549C218.386 106.327 212.903 102.845 207.241 101.113C204.031 100.13 200.671 99.5852 197.314 99.1571C193.663 98.6917 189.997 98.3104 186.332 97.9434C171.494 96.4577 156.6 95.5501 141.65 95.2206C134.273 95.0579 126.897 95.0619 119.519 95.1556C112.93 95.2393 105.991 95.2373 99.8782 92.7857C95.1249 90.8792 90.8108 87.4108 89.4863 82.8529C87.9574 77.5915 90.7774 72.2336 94.8227 68.4231C96.955 66.4146 99.4471 64.7241 102.018 63.1697C104.807 61.4833 107.693 59.9164 110.642 58.4538C116.449 55.5745 122.521 53.124 128.794 51.1278C131.888 50.1428 135.029 49.293 138.196 48.509C140.871 47.847 143.554 47.1841 146.139 46.2821C151.137 44.5385 155.89 41.585 157.16 36.743C158.365 32.154 156.334 27.1722 152.774 23.7631C148.656 19.8189 142.447 18.09 136.493 17.8102C129.81 17.4962 123.28 18.9605 116.999 20.8189C110.299 22.8011 103.743 25.0802 96.9013 26.6857C90.1169 28.2762 83.2013 29.4016 76.2172 30.0516C72.7982 30.3703 69.2759 30.7302 65.8366 30.4862C62.9542 30.2817 60.0865 29.5396 57.9622 27.7488C56.1407 26.2132 55.0556 24.1029 55.4286 21.8758C55.4964 21.4713 56.1983 21.6432 56.131 22.0453C55.6769 24.7563 57.7819 27.2544 60.3758 28.534C63.3738 30.0129 67.0218 30.0149 70.3596 29.8458C77.5967 29.4631 84.7848 28.5535 91.8495 27.1262C98.7913 25.7382 105.485 23.754 112.171 21.6344C118.522 19.6213 125.014 17.6565 131.798 17.2205C137.685 16.8421 143.877 17.5929 149.005 20.286C153.512 22.6528 156.826 26.6 157.882 31.1294C158.914 35.5555 157.485 40.0104 153.658 43.0991C149.695 46.297 144.262 47.6642 139.199 48.9234C132.776 50.5206 126.492 52.3875 120.409 54.8115C114.243 57.2616 108.33 60.172 102.734 63.5103C97.3333 66.7414 92.0031 70.807 90.2949 76.5712C89.4992 79.2563 89.6461 82.1041 90.9775 84.6402C92.1614 86.8953 94.111 88.7921 96.3823 90.2552C101.801 93.7461 108.631 94.4628 115.177 94.5341C122.529 94.6142 129.881 94.397 137.235 94.5027C152.223 94.718 167.18 95.5166 182.106 96.8986C185.847 97.2451 189.582 97.6282 193.313 98.0478C196.668 98.4253 200.035 98.8003 203.334 99.4707C209.201 100.663 214.909 102.955 218.555 107.309C220.173 109.196 221.176 111.433 221.456 113.78C221.711 116.229 221.026 118.683 219.761 120.862C216.961 125.684 211.717 128.752 206.147 130.767C203.164 131.847 200.07 132.664 196.982 133.476C196.532 133.594 196.34 132.979 196.788 132.861L196.788 132.861Z" fill="#F2F2F2"/>
<path d="M55.8995 27.0342C59.1175 27.0342 61.7263 24.7504 61.7263 21.9332C61.7263 19.1161 59.1175 16.8323 55.8995 16.8323C52.6814 16.8323 50.0727 19.1161 50.0727 21.9332C50.0727 24.7504 52.6814 27.0342 55.8995 27.0342Z" fill="#F2F2F2"/>
<path d="M96.3245 36.7054C99.5426 36.7054 102.151 34.4216 102.151 31.6044C102.151 28.7872 99.5426 26.5034 96.3245 26.5034C93.1064 26.5034 90.4977 28.7872 90.4977 31.6044C90.4977 34.4216 93.1064 36.7054 96.3245 36.7054Z" fill="#F2F2F2"/>
<path d="M130.555 17.3641C133.773 17.3641 136.382 15.0803 136.382 12.2631C136.382 9.44589 133.773 7.16211 130.555 7.16211C127.337 7.16211 124.728 9.44589 124.728 12.2631C124.728 15.0803 127.337 17.3641 130.555 17.3641Z" fill="#F2F2F2"/>
<path d="M151.92 39.0437C155.138 39.0437 157.747 36.76 157.747 33.9428C157.747 31.1256 155.138 28.8418 151.92 28.8418C148.702 28.8418 146.094 31.1256 146.094 33.9428C146.094 36.76 148.702 39.0437 151.92 39.0437Z" fill="#F2F2F2"/>
<path d="M123.031 64.1228C126.249 64.1228 128.858 61.8391 128.858 59.0219C128.858 56.2047 126.249 53.9209 123.031 53.9209C119.813 53.9209 117.204 56.2047 117.204 59.0219C117.204 61.8391 119.813 64.1228 123.031 64.1228Z" fill="#F2F2F2"/>
<path d="M86.3695 76.2376C89.5875 76.2376 92.1963 73.9538 92.1963 71.1366C92.1963 68.3194 89.5875 66.0356 86.3695 66.0356C83.1514 66.0356 80.5427 68.3194 80.5427 71.1366C80.5427 73.9538 83.1514 76.2376 86.3695 76.2376Z" fill="#F2F2F2"/>
<path d="M125.214 95.1534C128.432 95.1534 131.041 92.8696 131.041 90.0524C131.041 87.2352 128.432 84.9514 125.214 84.9514C121.996 84.9514 119.387 87.2352 119.387 90.0524C119.387 92.8696 121.996 95.1534 125.214 95.1534Z" fill="#F2F2F2"/>
<path d="M166.972 105.781C170.19 105.781 172.799 103.498 172.799 100.68C172.799 97.8631 170.19 95.5793 166.972 95.5793C163.754 95.5793 161.146 97.8631 161.146 100.68C161.146 103.498 163.754 105.781 166.972 105.781Z" fill="#F2F2F2"/>
<path d="M215.774 103.443C218.992 103.443 221.601 101.159 221.601 98.3422C221.601 95.525 218.992 93.2412 215.774 93.2412C212.556 93.2412 209.947 95.525 209.947 98.3422C209.947 101.159 212.556 103.443 215.774 103.443Z" fill="#F2F2F2"/>
<path d="M128.873 21.616C111.419 21.7239 97.128 34.141 96.8801 49.4197C96.8778 49.5608 96.8767 50.5527 96.8768 51.85C96.877 53.7521 97.7401 55.5763 99.2765 56.9213C100.813 58.2664 102.897 59.0221 105.069 59.0224H105.069C106.146 59.0222 107.213 58.8362 108.208 58.475C109.203 58.1138 110.107 57.5846 110.868 56.9175C111.629 56.2504 112.233 55.4585 112.644 54.5871C113.056 53.7157 113.267 52.7819 113.266 51.839C113.265 50.9565 113.265 50.3457 113.265 50.3082C113.264 47.9469 113.966 45.6261 115.3 43.5742C116.635 41.5222 118.557 39.8098 120.877 38.6053C123.197 37.4009 125.835 36.7459 128.532 36.7048C131.229 36.6636 133.892 37.2378 136.258 38.3708C138.625 39.5038 140.614 41.1566 142.029 43.1667C143.445 45.1767 144.239 47.4746 144.332 49.8345C144.425 52.1944 143.815 54.535 142.562 56.6259C141.309 58.7168 139.455 60.4861 137.184 61.7598L137.187 61.7628C137.187 61.7628 125.526 68.3344 121.971 77.3495L121.974 77.3502C121.349 79.197 121.032 81.1132 121.034 83.0394C121.034 83.8312 121.087 90.7592 121.19 96.3822C121.226 98.3224 122.131 100.172 123.712 101.533C125.292 102.894 127.42 103.656 129.636 103.656H129.636C130.75 103.656 131.853 103.463 132.881 103.088C133.909 102.714 134.843 102.165 135.628 101.473C136.413 100.782 137.034 99.9613 137.456 99.0587C137.877 98.1562 138.091 97.1897 138.084 96.2147C138.048 91.065 138.029 85.0687 138.029 84.6335C138.029 79.0979 144.129 73.5825 149.139 69.9857C154.909 65.844 159.061 60.1998 160.729 53.8329C161.098 52.522 161.302 51.1797 161.336 49.83C161.336 46.1076 160.494 42.422 158.86 38.9856C157.226 35.5492 154.831 32.4298 151.814 29.8072C148.796 27.1846 145.216 25.1107 141.279 23.7048C137.341 22.299 133.125 21.5891 128.873 21.616Z" fill="#FEDC62"/>
<path d="M177.912 65.1855C181.935 65.1855 185.196 62.3308 185.196 58.8093C185.196 55.2878 181.935 52.4331 177.912 52.4331C173.89 52.4331 170.629 55.2878 170.629 58.8093C170.629 62.3308 173.89 65.1855 177.912 65.1855Z" fill="#2F2E41"/>
<path d="M164.454 130.888H161.477L160.061 120.837H164.454L164.454 130.888Z" fill="#A0616A"/>
<path d="M159.35 130.143H165.09V133.307H155.736C155.736 132.892 155.829 132.48 156.011 132.097C156.192 131.713 156.459 131.364 156.794 131.07C157.13 130.776 157.528 130.543 157.967 130.384C158.405 130.225 158.875 130.143 159.35 130.143Z" fill="#2F2E41"/>
<path d="M187.518 130.888H184.542L183.126 120.837H187.519L187.518 130.888Z" fill="#A0616A"/>
<path d="M182.415 130.143H188.155V133.307H178.801C178.801 132.892 178.894 132.48 179.076 132.097C179.257 131.713 179.523 131.364 179.859 131.07C180.195 130.776 180.593 130.543 181.032 130.384C181.47 130.225 181.94 130.143 182.415 130.143Z" fill="#2F2E41"/>
<path d="M176.804 65.2227C180.098 65.2227 182.767 62.8855 182.767 60.0024C182.767 57.1194 180.098 54.7822 176.804 54.7822C173.511 54.7822 170.841 57.1194 170.841 60.0024C170.841 62.8855 173.511 65.2227 176.804 65.2227Z" fill="#A0616A"/>
<path d="M180.36 82.0622L183.028 76.6956C183.676 75.4366 183.862 74.0327 183.56 72.6774C183.258 71.3221 182.482 70.0823 181.341 69.1292C181.107 68.9263 180.858 68.7367 180.596 68.5617C179.279 67.6601 177.657 67.1687 175.985 67.1653C174.861 67.1691 173.752 67.3851 172.732 67.7987C172.645 67.8327 172.56 67.8688 172.472 67.9049C172.305 67.9751 172.14 68.0516 171.979 68.1302C170.934 68.6556 170.045 69.3886 169.383 70.2703C168.72 71.1519 168.304 72.1574 168.168 73.2057L166.99 81.8433C166.694 82.5213 156.128 107.006 159.823 125.699C159.863 125.899 159.974 126.082 160.141 126.222C160.307 126.363 160.521 126.453 160.751 126.479L164.497 126.925C164.77 126.958 165.048 126.899 165.274 126.76C165.499 126.62 165.656 126.412 165.713 126.175L171.999 99.9454C172.038 99.7824 172.138 99.6357 172.284 99.5285C172.43 99.4214 172.612 99.3602 172.802 99.3545C172.992 99.3489 173.179 99.3992 173.333 99.4975C173.486 99.5957 173.598 99.7362 173.65 99.8965L182.531 127.48C182.594 127.68 182.731 127.857 182.92 127.983C183.109 128.109 183.34 128.177 183.577 128.177C183.648 128.177 183.719 128.171 183.788 128.16L188.365 127.389C188.631 127.345 188.869 127.216 189.032 127.027C189.195 126.838 189.271 126.602 189.246 126.366C188.574 119.801 185 86.9145 180.36 82.0622Z" fill="#2F2E41"/>
<path d="M153.63 64.3459C153.588 64.6562 153.625 64.9708 153.738 65.2673C153.85 65.5638 154.036 65.8351 154.281 66.0622C154.526 66.2892 154.825 66.4664 155.157 66.5813C155.489 66.6961 155.846 66.7459 156.202 66.7271L159.535 73.7393L162.056 70.4674L158.505 64.3101C158.429 63.7882 158.137 63.3088 157.684 62.9628C157.232 62.6167 156.65 62.428 156.049 62.4324C155.448 62.4369 154.87 62.6341 154.424 62.9867C153.978 63.3394 153.696 63.823 153.63 64.3459L153.63 64.3459Z" fill="#A0616A"/>
<path d="M176.475 89.1236C176.829 89.0866 177.17 88.9819 177.473 88.8171C177.777 88.6522 178.035 88.4312 178.23 88.1695C178.425 87.9078 178.552 87.6119 178.602 87.3025C178.653 86.9932 178.625 86.678 178.521 86.3791L185.534 81.9076L181.312 80.5234L175.299 84.9819C174.737 85.168 174.273 85.5282 173.994 85.9941C173.715 86.46 173.641 86.9994 173.786 87.5099C173.931 88.0204 174.284 88.4667 174.78 88.7641C175.276 89.0615 175.879 89.1895 176.475 89.1236Z" fill="#A0616A"/>
<path d="M165.044 78.4141C164.775 78.4139 164.507 78.3907 164.243 78.345C163.605 78.2387 163.007 77.9967 162.501 77.6403C161.995 77.2838 161.597 76.824 161.342 76.3012L156.673 71.3164C156.574 71.211 156.502 71.0884 156.462 70.9567C156.422 70.825 156.414 70.6874 156.44 70.5529C156.465 70.4185 156.523 70.2903 156.61 70.1771C156.697 70.0639 156.81 69.9683 156.942 69.8965L160.265 68.0961C160.387 68.0297 160.524 67.9851 160.666 67.965C160.809 67.945 160.954 67.9498 161.095 67.9792C161.235 68.0087 161.367 68.0622 161.484 68.1366C161.6 68.211 161.699 68.3049 161.774 68.4129L165.065 73.1598L171.368 69.0818C171.87 68.8515 172.45 68.7869 173.001 68.8998C173.553 69.0128 174.04 69.2957 174.373 69.697C174.706 70.0983 174.863 70.5911 174.816 71.0854C174.768 71.5797 174.519 72.0425 174.114 72.3893L167.823 77.413C167.084 78.0545 166.085 78.4143 165.044 78.4141Z" fill="#2F2E41"/>
<path d="M182.073 85.9111C182.065 85.9111 182.056 85.9111 182.047 85.9109C181.894 85.9077 181.744 85.8763 181.605 85.8188C181.467 85.7613 181.343 85.679 181.244 85.5772L178.29 82.5605C178.189 82.4578 178.115 82.3375 178.071 82.2077C178.028 82.0779 178.016 81.9414 178.037 81.8074C178.058 81.6733 178.112 81.5447 178.194 81.4301C178.276 81.3154 178.385 81.2173 178.513 81.1422L184.044 77.9143L179.034 72.6406C178.742 72.2152 178.635 71.7122 178.732 71.2235C178.83 70.7348 179.124 70.293 179.563 69.9789C180.001 69.6647 180.554 69.4992 181.121 69.5125C181.687 69.5258 182.229 69.717 182.648 70.0513L188.738 75.2613C189.217 75.6446 189.583 76.124 189.804 76.6583C190.025 77.1927 190.095 77.766 190.007 78.3291C189.919 78.8922 189.677 79.4283 189.3 79.8912C188.924 80.3542 188.425 80.7303 187.846 80.9872L182.868 85.6108C182.766 85.7056 182.643 85.7811 182.506 85.8327C182.369 85.8844 182.222 85.9111 182.073 85.9111Z" fill="#2F2E41"/>
<path d="M175.288 74.7962C175.24 74.7962 175.193 74.7936 175.146 74.7884C174.94 74.7665 174.746 74.6934 174.587 74.5778C174.427 74.4622 174.308 74.3089 174.245 74.1361L172.026 68.1787C171.97 68.0281 171.979 67.865 172.05 67.7195C172.121 67.5739 172.25 67.4559 172.413 67.3871L172.485 67.3573C172.55 67.3301 172.615 67.3033 172.681 67.2775C173.716 66.8573 174.842 66.6381 175.983 66.635C177.464 66.6374 178.912 67.0183 180.15 67.731C180.316 67.8277 180.432 67.9775 180.472 68.1482C180.513 68.3189 180.476 68.4969 180.369 68.6438L176.205 74.3542C176.107 74.4898 175.972 74.6015 175.811 74.6788C175.651 74.7561 175.471 74.7965 175.288 74.7962Z" fill="#E6E6E6"/>
<path d="M183.656 55.9619C184.972 55.9619 186.039 55.0278 186.039 53.8755C186.039 52.7232 184.972 51.7891 183.656 51.7891C182.339 51.7891 181.272 52.7232 181.272 53.8755C181.272 55.0278 182.339 55.9619 183.656 55.9619Z" fill="#2F2E41"/>
<path d="M175.486 51.5818C173.811 51.5818 172.206 52.164 171.022 53.2003C169.838 54.2367 169.173 55.6422 169.173 57.1078V59.4458H172.458L174.029 57.1078L174.5 59.4458H184.469L181.798 57.1078C181.798 55.6422 181.133 54.2367 179.949 53.2003C178.765 52.164 177.16 51.5818 175.486 51.5818Z" fill="#2F2E41"/>
<path d="M184.88 52.4457C185.143 51.7242 185.689 51.1072 186.421 50.7031C187.153 50.299 188.024 50.1337 188.881 50.2362C190.4 50.4585 191.601 51.5273 192.316 52.721C193.032 53.9148 193.362 55.2508 193.843 56.5314C194.324 57.8121 195.006 59.0997 196.221 59.9287C197.435 60.7577 199.299 60.9825 200.491 60.1297C200.355 61.0185 199.903 61.8473 199.199 62.4988C198.496 63.1504 197.576 63.5917 196.57 63.7605C195.564 63.9292 194.522 63.8168 193.593 63.4392C192.664 63.0615 191.894 62.4378 191.392 61.656C190.763 60.6759 190.601 59.5271 190.414 58.4146C190.227 57.3021 189.985 56.1511 189.234 55.2392C188.482 54.3272 187.076 53.7316 185.882 54.147L184.88 52.4457Z" fill="#2F2E41"/>
<path d="M107.383 55.6291C105.21 55.6289 103.126 54.8731 101.59 53.5281C100.053 52.1831 99.1902 50.3589 99.1901 48.4567C99.1899 47.1594 99.191 46.1676 99.1933 46.0265C99.2623 41.583 100.541 37.2179 102.922 33.2935C99.0093 37.9827 96.8579 43.6206 96.7654 49.4271C96.7632 49.5682 96.7621 50.5601 96.7622 51.8574C96.7623 53.7595 97.6255 55.5837 99.1619 56.9287C100.698 58.2738 102.782 59.0295 104.955 59.0298C106.74 59.0292 108.477 58.5184 109.9 57.5751C111.324 56.6318 112.357 55.3074 112.842 53.8033C111.342 54.9809 109.398 55.6312 107.383 55.6291Z" fill="#3F3D56"/>
<path d="M129.43 36.7281C131.942 36.8331 134.387 37.4702 136.556 38.5848C138.725 39.6993 140.552 41.258 141.881 43.127C143.21 44.996 144.001 47.1194 144.186 49.3149C144.371 51.5104 143.945 53.7124 142.943 55.7319C144.392 54.243 145.456 52.4982 146.064 50.6165C146.672 48.7348 146.81 46.7605 146.467 44.828C146.125 42.8956 145.31 41.0506 144.079 39.4187C142.848 37.7868 141.23 36.4065 139.335 35.3718C137.439 34.3371 135.311 33.6723 133.095 33.4229C130.88 33.1734 128.629 33.3451 126.496 33.9263C124.363 34.5075 122.398 35.4844 120.736 36.7905C119.073 38.0966 117.752 39.7012 116.862 41.4949C118.4 39.9109 120.333 38.6573 122.512 37.8308C124.692 37.0044 127.058 36.6271 129.43 36.7281Z" fill="#3F3D56"/>
<path d="M131.952 100.263C129.735 100.263 127.607 99.5007 126.027 98.1399C124.447 96.7792 123.541 94.9291 123.505 92.989C123.402 87.3659 123.349 80.438 123.349 79.6462C123.348 77.72 123.664 75.8037 124.29 73.9569L124.287 73.9563C124.656 73.0293 125.101 72.1271 125.62 71.2568C124.027 73.1153 122.76 75.1713 121.859 77.3569L121.862 77.3576C121.237 79.2044 120.92 81.1206 120.921 83.0468C120.921 83.8386 120.974 90.7666 121.077 96.3896C121.113 98.3298 122.019 100.18 123.599 101.541C125.179 102.901 127.307 103.664 129.524 103.663C131.351 103.663 133.129 103.144 134.592 102.184C136.054 101.224 137.121 99.8752 137.633 98.3394C136.08 99.5792 134.053 100.265 131.952 100.263Z" fill="#3F3D56"/>
<path d="M56.0571 130.985L59.0334 130.985L60.4496 120.934L56.0564 120.934L56.0571 130.985Z" fill="#FFB8B8"/>
<path d="M64.7732 133.405L55.4186 133.405L55.4184 130.241L61.1587 130.241C62.1173 130.241 63.0366 130.574 63.7145 131.167C64.3923 131.761 64.7731 132.565 64.7732 133.405L64.7732 133.405Z" fill="#2F2E41"/>
<path d="M45.3748 130.985L48.3511 130.985L49.7673 120.934L45.3741 120.934L45.3748 130.985Z" fill="#FFB8B8"/>
<path d="M54.0904 133.405L44.7358 133.405L44.7356 130.241L50.4759 130.241C51.4345 130.241 52.3538 130.574 53.0317 131.167C53.7095 131.761 54.0903 132.565 54.0904 133.405L54.0904 133.405Z" fill="#2F2E41"/>
<path d="M47.9763 127.894L45.069 127.76C44.9191 127.753 44.7722 127.72 44.6369 127.663C44.5016 127.606 44.3806 127.526 44.2808 127.428C44.181 127.33 44.1045 127.216 44.0557 127.091C44.0068 126.967 43.9866 126.835 43.9963 126.704L47.4712 93.0239L63.4733 96.8041L65.015 96.4359L60.1937 126.252C60.1527 126.476 60.0254 126.682 59.8331 126.834C59.6407 126.987 59.3947 127.077 59.1356 127.09L56.0016 127.218C55.8449 127.226 55.6881 127.205 55.541 127.157C55.394 127.109 55.26 127.034 55.1475 126.939C55.035 126.843 54.9464 126.728 54.8873 126.6C54.8282 126.473 54.8 126.336 54.8043 126.199L55.3722 108.304C55.3748 108.221 55.342 108.141 55.2801 108.078C55.2182 108.015 55.1318 107.975 55.0379 107.966C54.944 107.956 54.8493 107.978 54.7727 108.026C54.696 108.074 54.6428 108.146 54.6236 108.227L49.1472 127.104C49.0955 127.328 48.9566 127.529 48.7543 127.673C48.5521 127.818 48.2988 127.896 48.0378 127.895C48.0175 127.895 47.997 127.895 47.9763 127.894Z" fill="#2F2E41"/>
<path d="M56.5905 65.4663C59.8838 65.4663 62.5535 63.1291 62.5535 60.2461C62.5535 57.363 59.8838 55.0259 56.5905 55.0259C53.2972 55.0259 50.6275 57.363 50.6275 60.2461C50.6275 63.1291 53.2972 65.4663 56.5905 65.4663Z" fill="#FFB8B8"/>
<path d="M46.6615 75.5832L47.3172 87.9674L47.5542 92.4729C47.5636 92.669 47.6397 92.8583 47.7727 93.0163C47.9056 93.1744 48.0894 93.2942 48.3006 93.3603L63.6775 98.2367C63.8018 98.2772 63.9334 98.2974 64.0659 98.2963C64.2174 98.297 64.3674 98.2709 64.5071 98.2196C64.6468 98.1684 64.7732 98.093 64.8789 97.998C64.9846 97.9031 65.0673 97.7904 65.1222 97.6668C65.177 97.5432 65.2029 97.4112 65.1982 97.2787L64.5677 75.0114C64.5263 73.1845 63.7581 71.4275 62.3956 70.0433C61.033 68.659 59.1615 67.7343 57.1037 67.4286C56.9549 67.4087 56.8036 67.3888 56.6523 67.3712C55.3762 67.2325 54.081 67.3403 52.8577 67.687C51.6343 68.0337 50.5126 68.6108 49.5715 69.3778C48.597 70.1625 47.8312 71.125 47.3284 72.1972C46.8255 73.2695 46.5979 74.4254 46.6615 75.5832L46.6615 75.5832Z" fill="#CCCCCC"/>
<path d="M71.0248 95.7651C70.6611 95.6663 70.3288 95.4944 70.0545 95.2632C69.7801 95.032 69.5713 94.7479 69.4447 94.4335C69.3181 94.1191 69.2771 93.7831 69.3252 93.4524C69.3732 93.1217 69.5089 92.8054 69.7213 92.5288L64.5068 86.4586L69.0067 86.2148L73.2686 92.0165C73.7248 92.3254 74.0423 92.765 74.1654 93.2582C74.2884 93.7515 74.2091 94.2669 73.9414 94.7141C73.6738 95.1613 73.2347 95.5117 72.7014 95.7039C72.1681 95.8961 71.5745 95.9177 71.0248 95.7651H71.0248Z" fill="#FFB8B8"/>
<path d="M67.3598 91.43C67.2216 91.3809 67.0959 91.3083 66.9901 91.2165C66.8842 91.1246 66.8001 91.0152 66.7428 90.8947L58.8868 74.5091C58.7326 74.1883 58.6522 73.844 58.6501 73.496C58.648 73.1479 58.7243 72.8029 58.8745 72.4807C59.0248 72.1585 59.2462 71.8653 59.5259 71.618C59.8057 71.3707 60.1383 71.1741 60.5049 71.0394C60.8715 70.9047 61.2648 70.8346 61.6624 70.833C62.0599 70.8315 62.454 70.8985 62.8219 71.0303C63.1899 71.1621 63.5245 71.3561 63.8068 71.6012C64.0891 71.8463 64.3134 72.1377 64.467 72.4587L72.3231 88.8446C72.4392 89.0875 72.4405 89.3609 72.3266 89.6047C72.2128 89.8484 71.9932 90.0427 71.716 90.1449L68.2283 91.4264C68.091 91.4772 67.9435 91.5038 67.7944 91.5044C67.6453 91.505 67.4976 91.4797 67.3597 91.43L67.3598 91.43Z" fill="#CCCCCC"/>
<path d="M54.6739 90.8525L62.2194 78.2045C62.3649 77.9613 62.6147 77.7785 62.914 77.6963C63.2132 77.614 63.5375 77.6391 63.8157 77.7659L74.7681 82.7734C75.0459 82.9008 75.2547 83.1195 75.3486 83.3814C75.4425 83.6434 75.4139 83.9273 75.269 84.1709L67.7235 96.8189C67.578 97.0621 67.3282 97.2449 67.0289 97.3271C66.7297 97.4093 66.4054 97.3843 66.1272 97.2574L55.1749 92.25C54.897 92.1226 54.6882 91.9039 54.5943 91.6419C54.5004 91.38 54.529 91.0961 54.6739 90.8525Z" fill="#3F3D56"/>
<path d="M59.7343 85.0733C59.6001 84.7613 59.3845 84.4811 59.1047 84.255C58.8249 84.0289 58.4886 83.8632 58.1226 83.7711C57.7566 83.679 57.3711 83.663 56.9968 83.7245C56.6226 83.786 56.2699 83.9233 55.967 84.1253L48.7373 79.9268L48.725 83.8736L55.5923 87.2555C55.9714 87.636 56.4914 87.8875 57.0612 87.9659C57.6309 88.0443 58.214 87.9446 58.7081 87.6842C59.2023 87.4239 59.5759 87.0195 59.7636 86.5421C59.9512 86.0647 59.9408 85.5447 59.7343 85.0733Z" fill="#FFB8B8"/>
<path d="M50.5938 85.9618L44.6852 81.8645C44.046 81.6766 43.4685 81.3558 43.0021 80.9294C42.5358 80.5031 42.1945 79.9841 42.0078 79.4169C41.821 78.8498 41.7942 78.2514 41.9297 77.6732C42.0652 77.0949 42.359 76.5542 42.7858 76.0972L48.1507 69.9421C48.5235 69.5433 49.0478 69.2753 49.6278 69.187C50.2077 69.0987 50.8046 69.1961 51.3093 69.4614C51.814 69.7266 52.1928 70.1421 52.3764 70.6317C52.5601 71.1213 52.5363 71.6524 52.3095 72.128L48.0647 78.2066L54.3027 80.7968C54.4478 80.8571 54.5766 80.9435 54.6807 81.0506C54.7847 81.1576 54.8616 81.2828 54.9063 81.4178C54.951 81.5527 54.9625 81.6945 54.94 81.8337C54.9175 81.9728 54.8615 82.1062 54.7757 82.225L52.2576 85.7137C52.1725 85.8314 52.0601 85.9322 51.9276 86.0095C51.7952 86.0868 51.6457 86.1389 51.4888 86.1624C51.4826 86.1633 51.4763 86.1642 51.47 86.165C51.3159 86.1854 51.1586 86.1779 51.0079 86.1429C50.8572 86.108 50.7162 86.0463 50.5938 85.9618Z" fill="#CCCCCC"/>
<path d="M52.0861 63.7416C52.0605 63.6761 52.0524 63.6063 52.0624 63.5376C52.0723 63.4689 52.1001 63.4031 52.1436 63.3453C52.1871 63.2875 52.2452 63.2391 52.3133 63.204C52.3815 63.1688 52.4579 63.1478 52.5368 63.1425C52.6983 63.1502 52.8563 63.1864 53.0014 63.2491C53.1464 63.3117 53.2755 63.3994 53.3807 63.507C53.5965 63.7248 53.8478 63.9136 54.1263 64.0675C54.4148 64.1947 54.806 64.1766 54.9705 63.9339C55.1249 63.706 55.0191 63.4009 54.9256 63.1362C54.6877 62.4627 54.5546 61.7642 54.5299 61.0596C54.503 60.2732 54.6297 59.4524 55.1271 58.839C55.769 58.0473 56.9167 57.7468 58.0029 57.7686C59.0892 57.7904 60.1578 58.0839 61.2337 58.2695C61.6051 58.3335 62.0417 58.3663 62.2902 58.1143C62.5543 57.8463 62.4573 57.4126 62.345 57.0508C62.0534 56.1119 61.7441 55.1412 61.0666 54.3829C60.3342 53.595 59.2879 53.0793 58.1385 52.9397C57.035 52.8201 55.9148 52.9314 54.87 53.2646C53.1678 53.7342 51.67 54.6477 50.5769 55.8828C49.4501 57.1962 48.9632 58.8468 49.2226 60.4737C49.4761 61.8906 50.3338 63.1707 51.6228 64.056L52.0861 63.7416Z" fill="#2F2E41"/>
<path d="M127.611 131.026C126.024 130.421 124.62 129.502 123.509 128.341C122.398 127.179 121.61 125.808 121.208 124.334C120.806 122.861 120.801 121.326 121.193 119.85C121.585 118.375 122.363 116.999 123.466 115.832C122.187 116.65 121.121 117.696 120.34 118.902C119.558 120.107 119.078 121.445 118.932 122.825C118.785 124.206 118.976 125.597 119.492 126.908C120.007 128.219 120.835 129.419 121.92 130.429C123.006 131.438 124.324 132.234 125.788 132.763C127.251 133.293 128.827 133.543 130.41 133.499C131.993 133.454 133.547 133.116 134.968 132.505C136.39 131.895 137.648 131.027 138.657 129.958C137.083 130.966 135.234 131.594 133.296 131.782C131.358 131.969 129.398 131.709 127.611 131.026Z" fill="#3F3D56"/>
<rect x="57" y="161" width="160" height="40" rx="15" fill="#E74A66" stroke="black" stroke-opacity="0.2"/>
<path d="M92.4964 179.326H90.1058C90.0376 178.934 89.9119 178.587 89.7287 178.284C89.5455 177.977 89.3175 177.717 89.0447 177.504C88.772 177.291 88.4609 177.131 88.1115 177.025C87.7663 176.914 87.3935 176.859 86.9929 176.859C86.2813 176.859 85.6506 177.038 85.1009 177.396C84.5511 177.749 84.1207 178.269 83.8097 178.955C83.4986 179.637 83.343 180.47 83.343 181.455C83.343 182.456 83.4986 183.3 83.8097 183.986C84.125 184.668 84.5554 185.183 85.1009 185.533C85.6506 185.878 86.2791 186.05 86.9865 186.05C87.3786 186.05 87.745 185.999 88.0859 185.897C88.4311 185.79 88.7401 185.635 89.0128 185.43C89.2898 185.226 89.522 184.974 89.7095 184.676C89.9013 184.378 90.0334 184.037 90.1058 183.653L92.4964 183.666C92.407 184.288 92.2131 184.872 91.9148 185.418C91.6207 185.963 91.2351 186.445 90.7578 186.862C90.2805 187.276 89.7223 187.599 89.0831 187.834C88.4439 188.064 87.7344 188.179 86.9545 188.179C85.804 188.179 84.777 187.913 83.8736 187.38C82.9702 186.847 82.2585 186.078 81.7386 185.072C81.2188 184.067 80.9588 182.861 80.9588 181.455C80.9588 180.044 81.2209 178.838 81.745 177.837C82.2692 176.831 82.983 176.062 83.8864 175.529C84.7898 174.996 85.8125 174.73 86.9545 174.73C87.6832 174.73 88.3608 174.832 88.9872 175.037C89.6136 175.241 90.1719 175.542 90.6619 175.938C91.152 176.33 91.5547 176.812 91.87 177.383C92.1896 177.95 92.3984 178.597 92.4964 179.326ZM94.6681 188V174.909H99.5772C100.583 174.909 101.427 175.084 102.108 175.433C102.795 175.783 103.312 176.273 103.662 176.903C104.015 177.53 104.192 178.261 104.192 179.096C104.192 179.935 104.013 180.664 103.655 181.282C103.302 181.896 102.78 182.371 102.089 182.707C101.399 183.04 100.551 183.206 99.5453 183.206H96.0488V181.237H99.2257C99.8137 181.237 100.295 181.156 100.67 180.994C101.045 180.828 101.322 180.587 101.501 180.272C101.684 179.952 101.776 179.56 101.776 179.096C101.776 178.631 101.684 178.235 101.501 177.907C101.318 177.575 101.039 177.323 100.664 177.153C100.289 176.978 99.8052 176.891 99.2129 176.891H97.0396V188H94.6681ZM101.431 182.068L104.672 188H102.025L98.8422 182.068H101.431ZM106.375 188V174.909H114.889V176.897H108.747V180.451H114.448V182.439H108.747V186.012H114.941V188H106.375ZM118.99 188H116.459L121.067 174.909H123.995L128.61 188H126.079L122.582 177.594H122.48L118.99 188ZM119.073 182.867H125.976V184.772H119.073V182.867ZM128.177 176.897V174.909H138.621V176.897H134.575V188H132.223V176.897H128.177ZM140.635 188V174.909H149.149V176.897H143.006V180.451H148.708V182.439H143.006V186.012H149.2V188H140.635ZM160.911 183.602H163.058L164.33 185.251L165.238 186.325L167.418 189.125H165.116L163.634 187.246L163.001 186.351L160.911 183.602ZM167.731 181.455C167.731 182.865 167.467 184.073 166.938 185.079C166.414 186.08 165.698 186.847 164.79 187.38C163.887 187.913 162.862 188.179 161.716 188.179C160.57 188.179 159.543 187.913 158.635 187.38C157.732 186.843 157.016 186.074 156.487 185.072C155.963 184.067 155.701 182.861 155.701 181.455C155.701 180.044 155.963 178.838 156.487 177.837C157.016 176.831 157.732 176.062 158.635 175.529C159.543 174.996 160.57 174.73 161.716 174.73C162.862 174.73 163.887 174.996 164.79 175.529C165.698 176.062 166.414 176.831 166.938 177.837C167.467 178.838 167.731 180.044 167.731 181.455ZM165.347 181.455C165.347 180.462 165.191 179.624 164.88 178.942C164.573 178.256 164.147 177.739 163.602 177.389C163.056 177.036 162.428 176.859 161.716 176.859C161.004 176.859 160.376 177.036 159.83 177.389C159.285 177.739 158.857 178.256 158.545 178.942C158.239 179.624 158.085 180.462 158.085 181.455C158.085 182.447 158.239 183.287 158.545 183.973C158.857 184.655 159.285 185.173 159.83 185.526C160.376 185.876 161.004 186.05 161.716 186.05C162.428 186.05 163.056 185.876 163.602 185.526C164.147 185.173 164.573 184.655 164.88 183.973C165.191 183.287 165.347 182.447 165.347 181.455ZM178.243 174.909H180.614V183.462C180.614 184.399 180.392 185.224 179.949 185.935C179.51 186.647 178.892 187.203 178.096 187.604C177.299 188 176.368 188.198 175.302 188.198C174.233 188.198 173.299 188 172.502 187.604C171.706 187.203 171.088 186.647 170.649 185.935C170.21 185.224 169.99 184.399 169.99 183.462V174.909H172.362V183.263C172.362 183.809 172.481 184.295 172.72 184.721C172.963 185.147 173.304 185.482 173.743 185.724C174.181 185.963 174.701 186.082 175.302 186.082C175.903 186.082 176.423 185.963 176.862 185.724C177.305 185.482 177.646 185.147 177.885 184.721C178.123 184.295 178.243 183.809 178.243 183.263V174.909ZM185.563 174.909V188H183.192V174.909H185.563ZM187.888 188V186.523L194.6 176.897H187.85V174.909H197.54V176.386L190.835 186.012H197.578V188H187.888Z" fill="white"/>
</g>
<defs>
<filter id="filter0_d_27401_362" x="-24" y="-20" width="331" height="262" filterUnits="userSpaceOnUse" color-interpolation-filters="sRGB">
<feFlood flood-opacity="0" result="BackgroundImageFix"/>
<feColorMatrix in="SourceAlpha" type="matrix" values="0 0 0 0 0 0 0 0 0 0 0 0 0 0 0 0 0 0 127 0" result="hardAlpha"/>
<feOffset dy="4"/>
<feGaussianBlur stdDeviation="12"/>
<feColorMatrix type="matrix" values="0 0 0 0 0.0627451 0 0 0 0 0.0941176 0 0 0 0 0.156863 0 0 0 0.06 0"/>
<feBlend mode="normal" in2="BackgroundImageFix" result="effect1_dropShadow_27401_362"/>
<feBlend mode="normal" in="SourceGraphic" in2="effect1_dropShadow_27401_362" result="shape"/>
</filter>
<clipPath id="clip0_27401_362">
<rect width="283" height="214" fill="white"/>
</clipPath>
</defs>
</svg>
