<svg width="1440" height="853" viewBox="0 0 1440 853" fill="none" xmlns="http://www.w3.org/2000/svg">
<path d="M-228.204 1H-267V45.7893M-228.204 1V45.7893ZM-228.204 1H-189.409ZM-228.204 45.7893H-267ZM-228.204 45.7893V90.5786ZM-228.204 45.7893H-189.409ZM-267 45.7893V90.5786ZM-228.204 90.5786H-267ZM-228.204 90.5786V135.369ZM-228.204 90.5786H-189.409ZM-267 90.5786V135.369ZM-228.204 135.369H-267ZM-228.204 135.369V180.158ZM-228.204 135.369H-189.409ZM-267 135.369V180.158ZM-228.204 180.158H-267ZM-228.204 180.158V224.947ZM-228.204 180.158H-189.409ZM-267 180.158V224.947ZM-228.204 224.947H-267ZM-228.204 224.947V269.736ZM-228.204 224.947H-189.409ZM-267 224.947V269.736ZM-228.204 269.736H-267ZM-228.204 269.736V314.529ZM-228.204 269.736H-189.409ZM-267 269.736V314.529ZM-228.204 314.529H-267ZM-228.204 314.529V359.314ZM-228.204 314.529H-189.409ZM-267 314.529V359.314ZM-228.204 359.314H-267ZM-228.204 359.314V404.107ZM-228.204 359.314H-189.409ZM-267 359.314V404.107ZM-228.204 404.107H-267ZM-228.204 404.107V448.893ZM-228.204 404.107H-189.409ZM-267 404.107V448.893ZM-228.204 448.893H-267ZM-228.204 448.893V493.686ZM-228.204 448.893H-189.409ZM-267 448.893V493.686ZM-228.204 493.686H-267ZM-228.204 493.686V538.471ZM-228.204 493.686H-189.409ZM-267 493.686V538.471ZM-228.204 538.471H-267ZM-228.204 538.471V583.264ZM-228.204 538.471H-189.409ZM-267 538.471V583.264ZM-228.204 583.264H-267ZM-228.204 583.264V628.05ZM-228.204 583.264H-189.409ZM-267 583.264V628.05ZM-228.204 628.05H-267ZM-228.204 628.05V672.843ZM-228.204 628.05H-189.409ZM-267 628.05V672.843ZM-228.204 672.843H-267ZM-228.204 672.843V717.629ZM-228.204 672.843H-189.409ZM-267 672.843V717.629ZM-228.204 717.629H-267ZM-228.204 717.629V762.421ZM-228.204 717.629H-189.409ZM-267 717.629V762.421ZM-228.204 762.421H-267ZM-228.204 762.421V807.207ZM-228.204 762.421H-189.409ZM-267 762.421V807.207ZM-228.204 807.207H-267ZM-228.204 807.207V852ZM-228.204 807.207H-189.409ZM-267 807.207V852H-228.204M-228.204 852H-189.409ZM-189.409 1V45.7893ZM-189.409 1H-150.613ZM-189.409 45.7893V90.5786ZM-189.409 45.7893H-150.613ZM-189.409 90.5786V135.369ZM-189.409 90.5786H-150.613ZM-189.409 135.369V180.158ZM-189.409 135.369H-150.613ZM-189.409 180.158V224.947ZM-189.409 180.158H-150.613ZM-189.409 224.947V269.736ZM-189.409 224.947H-150.613ZM-189.409 269.736V314.529ZM-189.409 269.736H-150.613ZM-189.409 314.529V359.314ZM-189.409 314.529H-150.613ZM-189.409 359.314V404.107ZM-189.409 359.314H-150.613ZM-189.409 404.107V448.893ZM-189.409 404.107H-150.613ZM-189.409 448.893V493.686ZM-189.409 448.893H-150.613ZM-189.409 493.686V538.471ZM-189.409 493.686H-150.613ZM-189.409 538.471V583.264ZM-189.409 538.471H-150.613ZM-189.409 583.264V628.05ZM-189.409 583.264H-150.613ZM-189.409 628.05V672.843ZM-189.409 628.05H-150.613ZM-189.409 672.843V717.629ZM-189.409 672.843H-150.613ZM-189.409 717.629V762.421ZM-189.409 717.629H-150.613ZM-189.409 762.421V807.207ZM-189.409 762.421H-150.613ZM-189.409 807.207V852ZM-189.409 807.207H-150.613ZM-189.409 852H-150.613ZM-150.613 1V45.7893ZM-150.613 1H-111.816ZM-150.613 45.7893V90.5786ZM-150.613 45.7893H-111.816ZM-150.613 90.5786V135.369ZM-150.613 90.5786H-111.816ZM-150.613 135.369V180.158ZM-150.613 135.369H-111.816ZM-150.613 180.158V224.947ZM-150.613 180.158H-111.816ZM-150.613 224.947V269.736ZM-150.613 224.947H-111.816ZM-150.613 269.736V314.529ZM-150.613 269.736H-111.816ZM-150.613 314.529V359.314ZM-150.613 314.529H-111.816ZM-150.613 359.314V404.107ZM-150.613 359.314H-111.816ZM-150.613 404.107V448.893ZM-150.613 404.107H-111.816ZM-150.613 448.893V493.686ZM-150.613 448.893H-111.816ZM-150.613 493.686V538.471ZM-150.613 493.686H-111.816ZM-150.613 538.471V583.264ZM-150.613 538.471H-111.816ZM-150.613 583.264V628.05ZM-150.613 583.264H-111.816ZM-150.613 628.05V672.843ZM-150.613 628.05H-111.816ZM-150.613 672.843V717.629ZM-150.613 672.843H-111.816ZM-150.613 717.629V762.421ZM-150.613 717.629H-111.816ZM-150.613 762.421V807.207ZM-150.613 762.421H-111.816ZM-150.613 807.207V852ZM-150.613 807.207H-111.816ZM-150.613 852H-111.816ZM-111.816 1V45.7893ZM-111.816 1H-73.0254ZM-111.816 45.7893V90.5786ZM-111.816 45.7893H-73.0254ZM-111.816 90.5786V135.369ZM-111.816 90.5786H-73.0254ZM-111.816 135.369V180.158ZM-111.816 135.369H-73.0254ZM-111.816 180.158V224.947ZM-111.816 180.158H-73.0254ZM-111.816 224.947V269.736ZM-111.816 224.947H-73.0254ZM-111.816 269.736V314.529ZM-111.816 269.736H-73.0254ZM-111.816 314.529V359.314ZM-111.816 314.529H-73.0254ZM-111.816 359.314V404.107ZM-111.816 359.314H-73.0254ZM-111.816 404.107V448.893ZM-111.816 404.107H-73.0254ZM-111.816 448.893V493.686ZM-111.816 448.893H-73.0254ZM-111.816 493.686V538.471ZM-111.816 493.686H-73.0254ZM-111.816 538.471V583.264ZM-111.816 538.471H-73.0254ZM-111.816 583.264V628.05ZM-111.816 583.264H-73.0254ZM-111.816 628.05V672.843ZM-111.816 628.05H-73.0254ZM-111.816 672.843V717.629ZM-111.816 672.843H-73.0254ZM-111.816 717.629V762.421ZM-111.816 717.629H-73.0254ZM-111.816 762.421V807.207ZM-111.816 762.421H-73.0254ZM-111.816 807.207V852ZM-111.816 807.207H-73.0254ZM-111.816 852H-73.0254ZM-73.0254 1V45.7893ZM-73.0254 1H-34.2246ZM-73.0254 45.7893V90.5786ZM-73.0254 45.7893H-34.2246ZM-73.0254 90.5786V135.369ZM-73.0254 90.5786H-34.2246ZM-73.0254 135.369V180.158ZM-73.0254 135.369H-34.2246ZM-73.0254 180.158V224.947ZM-73.0254 180.158H-34.2246ZM-73.0254 224.947V269.736ZM-73.0254 224.947H-34.2246ZM-73.0254 269.736V314.529ZM-73.0254 269.736H-34.2246ZM-73.0254 314.529V359.314ZM-73.0254 314.529H-34.2246ZM-73.0254 359.314V404.107ZM-73.0254 359.314H-34.2246ZM-73.0254 404.107V448.893ZM-73.0254 404.107H-34.2246ZM-73.0254 448.893V493.686ZM-73.0254 448.893H-34.2246ZM-73.0254 493.686V538.471ZM-73.0254 493.686H-34.2246ZM-73.0254 538.471V583.264ZM-73.0254 538.471H-34.2246ZM-73.0254 583.264V628.05ZM-73.0254 583.264H-34.2246ZM-73.0254 628.05V672.843ZM-73.0254 628.05H-34.2246ZM-73.0254 672.843V717.629ZM-73.0254 672.843H-34.2246ZM-73.0254 717.629V762.421ZM-73.0254 717.629H-34.2246ZM-73.0254 762.421V807.207ZM-73.0254 762.421H-34.2246ZM-73.0254 807.207V852ZM-73.0254 807.207H-34.2246ZM-73.0254 852H-34.2246ZM-34.2246 1V45.7893ZM-34.2246 1H4.5664ZM-34.2246 45.7893V90.5786ZM-34.2246 45.7893H4.5664ZM-34.2246 90.5786V135.369ZM-34.2246 90.5786H4.5664ZM-34.2246 135.369V180.158ZM-34.2246 135.369H4.5664ZM-34.2246 180.158V224.947ZM-34.2246 180.158H4.5664ZM-34.2246 224.947V269.736ZM-34.2246 224.947H4.5664ZM-34.2246 269.736V314.529ZM-34.2246 269.736H4.5664ZM-34.2246 314.529V359.314ZM-34.2246 314.529H4.5664ZM-34.2246 359.314V404.107ZM-34.2246 359.314H4.5664ZM-34.2246 404.107V448.893ZM-34.2246 404.107H4.5664ZM-34.2246 448.893V493.686ZM-34.2246 448.893H4.5664ZM-34.2246 493.686V538.471ZM-34.2246 493.686H4.5664ZM-34.2246 538.471V583.264ZM-34.2246 538.471H4.5664ZM-34.2246 583.264V628.05ZM-34.2246 583.264H4.5664ZM-34.2246 628.05V672.843ZM-34.2246 628.05H4.5664ZM-34.2246 672.843V717.629ZM-34.2246 672.843H4.5664ZM-34.2246 717.629V762.421ZM-34.2246 717.629H4.5664ZM-34.2246 762.421V807.207ZM-34.2246 762.421H4.5664ZM-34.2246 807.207V852ZM-34.2246 807.207H4.5664ZM-34.2246 852H4.5664ZM4.5664 1V45.7893ZM4.5664 1H43.3673ZM4.5664 45.7893V90.5786ZM4.5664 45.7893H43.3673ZM4.5664 90.5786V135.369ZM4.5664 90.5786H43.3673ZM4.5664 135.369V180.158ZM4.5664 135.369H43.3673ZM4.5664 180.158V224.947ZM4.5664 180.158H43.3673ZM4.5664 224.947V269.736ZM4.5664 224.947H43.3673ZM4.5664 269.736V314.529ZM4.5664 269.736H43.3673ZM4.5664 314.529V359.314ZM4.5664 314.529H43.3673ZM4.5664 359.314V404.107ZM4.5664 359.314H43.3673ZM4.5664 404.107V448.893ZM4.5664 404.107H43.3673ZM4.5664 448.893V493.686ZM4.5664 448.893H43.3673ZM4.5664 493.686V538.471ZM4.5664 493.686H43.3673ZM4.5664 538.471V583.264ZM4.5664 538.471H43.3673ZM4.5664 583.264V628.05ZM4.5664 583.264H43.3673ZM4.5664 628.05V672.843ZM4.5664 628.05H43.3673ZM4.5664 672.843V717.629ZM4.5664 672.843H43.3673ZM4.5664 717.629V762.421ZM4.5664 717.629H43.3673ZM4.5664 762.421V807.207ZM4.5664 762.421H43.3673ZM4.5664 807.207V852ZM4.5664 807.207H43.3673ZM4.5664 852H43.3673ZM43.3673 1V45.7893ZM43.3673 1H82.1582ZM43.3673 45.7893V90.5786ZM43.3673 45.7893H82.1582ZM43.3673 90.5786V135.369ZM43.3673 90.5786H82.1582ZM43.3673 135.369V180.158ZM43.3673 135.369H82.1582ZM43.3673 180.158V224.947ZM43.3673 180.158H82.1582ZM43.3673 224.947V269.736ZM43.3673 224.947H82.1582ZM43.3673 269.736V314.529ZM43.3673 269.736H82.1582ZM43.3673 314.529V359.314ZM43.3673 314.529H82.1582ZM43.3673 359.314V404.107ZM43.3673 359.314H82.1582ZM43.3673 404.107V448.893ZM43.3673 404.107H82.1582ZM43.3673 448.893V493.686ZM43.3673 448.893H82.1582ZM43.3673 493.686V538.471ZM43.3673 493.686H82.1582ZM43.3673 538.471V583.264ZM43.3673 538.471H82.1582ZM43.3673 583.264V628.05ZM43.3673 583.264H82.1582ZM43.3673 628.05V672.843ZM43.3673 628.05H82.1582ZM43.3673 672.843V717.629ZM43.3673 672.843H82.1582ZM43.3673 717.629V762.421ZM43.3673 717.629H82.1582ZM43.3673 762.421V807.207ZM43.3673 762.421H82.1582ZM43.3673 807.207V852ZM43.3673 807.207H82.1582ZM43.3673 852H82.1582ZM82.1582 1V45.7893ZM82.1582 1H120.959ZM82.1582 45.7893V90.5786ZM82.1582 45.7893H120.959ZM82.1582 90.5786V135.369ZM82.1582 90.5786H120.959ZM82.1582 135.369V180.158ZM82.1582 135.369H120.959ZM82.1582 180.158V224.947ZM82.1582 180.158H120.959ZM82.1582 224.947V269.736ZM82.1582 224.947H120.959ZM82.1582 269.736V314.529ZM82.1582 269.736H120.959ZM82.1582 314.529V359.314ZM82.1582 314.529H120.959ZM82.1582 359.314V404.107ZM82.1582 359.314H120.959ZM82.1582 404.107V448.893ZM82.1582 404.107H120.959ZM82.1582 448.893V493.686ZM82.1582 448.893H120.959ZM82.1582 493.686V538.471ZM82.1582 493.686H120.959ZM82.1582 538.471V583.264ZM82.1582 538.471H120.959ZM82.1582 583.264V628.05ZM82.1582 583.264H120.959ZM82.1582 628.05V672.843ZM82.1582 628.05H120.959ZM82.1582 672.843V717.629ZM82.1582 672.843H120.959ZM82.1582 717.629V762.421ZM82.1582 717.629H120.959ZM82.1582 762.421V807.207ZM82.1582 762.421H120.959ZM82.1582 807.207V852ZM82.1582 807.207H120.959ZM82.1582 852H120.959ZM120.959 1V45.7893ZM120.959 1H159.75ZM120.959 45.7893V90.5786ZM120.959 45.7893H159.75ZM120.959 90.5786V135.369ZM120.959 90.5786H159.75ZM120.959 135.369V180.158ZM120.959 135.369H159.75ZM120.959 180.158V224.947ZM120.959 180.158H159.75ZM120.959 224.947V269.736ZM120.959 224.947H159.75ZM120.959 269.736V314.529ZM120.959 269.736H159.75ZM120.959 314.529V359.314ZM120.959 314.529H159.75ZM120.959 359.314V404.107ZM120.959 359.314H159.75ZM120.959 404.107V448.893ZM120.959 404.107H159.75ZM120.959 448.893V493.686ZM120.959 448.893H159.75ZM120.959 493.686V538.471ZM120.959 493.686H159.75ZM120.959 538.471V583.264ZM120.959 538.471H159.75ZM120.959 583.264V628.05ZM120.959 583.264H159.75ZM120.959 628.05V672.843ZM120.959 628.05H159.75ZM120.959 672.843V717.629ZM120.959 672.843H159.75ZM120.959 717.629V762.421ZM120.959 717.629H159.75ZM120.959 762.421V807.207ZM120.959 762.421H159.75ZM120.959 807.207V852ZM120.959 807.207H159.75ZM120.959 852H159.75ZM159.75 1V45.7893ZM159.75 1H198.541ZM159.75 45.7893V90.5786ZM159.75 45.7893H198.541ZM159.75 90.5786V135.369ZM159.75 90.5786H198.541ZM159.75 135.369V180.158ZM159.75 135.369H198.541ZM159.75 180.158V224.947ZM159.75 180.158H198.541ZM159.75 224.947V269.736ZM159.75 224.947H198.541ZM159.75 269.736V314.529ZM159.75 269.736H198.541ZM159.75 314.529V359.314ZM159.75 314.529H198.541ZM159.75 359.314V404.107ZM159.75 359.314H198.541ZM159.75 404.107V448.893ZM159.75 404.107H198.541ZM159.75 448.893V493.686ZM159.75 448.893H198.541ZM159.75 493.686V538.471ZM159.75 493.686H198.541ZM159.75 538.471V583.264ZM159.75 538.471H198.541ZM159.75 583.264V628.05ZM159.75 583.264H198.541ZM159.75 628.05V672.843ZM159.75 628.05H198.541ZM159.75 672.843V717.629ZM159.75 672.843H198.541ZM159.75 717.629V762.421ZM159.75 717.629H198.541ZM159.75 762.421V807.207ZM159.75 762.421H198.541ZM159.75 807.207V852ZM159.75 807.207H198.541ZM159.75 852H198.541ZM198.541 1V45.7893ZM198.541 1H237.342ZM198.541 45.7893V90.5786ZM198.541 45.7893H237.342ZM198.541 90.5786V135.369ZM198.541 90.5786H237.342ZM198.541 135.369V180.158ZM198.541 135.369H237.342ZM198.541 180.158V224.947ZM198.541 180.158H237.342ZM198.541 224.947V269.736ZM198.541 224.947H237.342ZM198.541 269.736V314.529ZM198.541 269.736H237.342ZM198.541 314.529V359.314ZM198.541 314.529H237.342ZM198.541 359.314V404.107ZM198.541 359.314H237.342ZM198.541 404.107V448.893ZM198.541 404.107H237.342ZM198.541 448.893V493.686ZM198.541 448.893H237.342ZM198.541 493.686V538.471ZM198.541 493.686H237.342ZM198.541 538.471V583.264ZM198.541 538.471H237.342ZM198.541 583.264V628.05ZM198.541 583.264H237.342ZM198.541 628.05V672.843ZM198.541 628.05H237.342ZM198.541 672.843V717.629ZM198.541 672.843H237.342ZM198.541 717.629V762.421ZM198.541 717.629H237.342ZM198.541 762.421V807.207ZM198.541 762.421H237.342ZM198.541 807.207V852ZM198.541 807.207H237.342ZM198.541 852H237.342ZM237.342 1V45.7893ZM237.342 1H276.133ZM237.342 45.7893V90.5786ZM237.342 45.7893H276.133ZM237.342 90.5786V135.369ZM237.342 90.5786H276.133ZM237.342 135.369V180.158ZM237.342 135.369H276.133ZM237.342 180.158V224.947ZM237.342 180.158H276.133ZM237.342 224.947V269.736ZM237.342 224.947H276.133ZM237.342 269.736V314.529ZM237.342 269.736H276.133ZM237.342 314.529V359.314ZM237.342 314.529H276.133ZM237.342 359.314V404.107ZM237.342 359.314H276.133ZM237.342 404.107V448.893ZM237.342 404.107H276.133ZM237.342 448.893V493.686ZM237.342 448.893H276.133ZM237.342 493.686V538.471ZM237.342 493.686H276.133ZM237.342 538.471V583.264ZM237.342 538.471H276.133ZM237.342 583.264V628.05ZM237.342 583.264H276.133ZM237.342 628.05V672.843ZM237.342 628.05H276.133ZM237.342 672.843V717.629ZM237.342 672.843H276.133ZM237.342 717.629V762.421ZM237.342 717.629H276.133ZM237.342 762.421V807.207ZM237.342 762.421H276.133ZM237.342 807.207V852ZM237.342 807.207H276.133ZM237.342 852H276.133ZM276.133 1V45.7893ZM276.133 1H314.934ZM276.133 45.7893V90.5786ZM276.133 45.7893H314.934ZM276.133 90.5786V135.369ZM276.133 90.5786H314.934ZM276.133 135.369V180.158ZM276.133 135.369H314.934ZM276.133 180.158V224.947ZM276.133 180.158H314.934ZM276.133 224.947V269.736ZM276.133 224.947H314.934ZM276.133 269.736V314.529ZM276.133 269.736H314.934ZM276.133 314.529V359.314ZM276.133 314.529H314.934ZM276.133 359.314V404.107ZM276.133 359.314H314.934ZM276.133 404.107V448.893ZM276.133 404.107H314.934ZM276.133 448.893V493.686ZM276.133 448.893H314.934ZM276.133 493.686V538.471ZM276.133 493.686H314.934ZM276.133 538.471V583.264ZM276.133 538.471H314.934ZM276.133 583.264V628.05ZM276.133 583.264H314.934ZM276.133 628.05V672.843ZM276.133 628.05H314.934ZM276.133 672.843V717.629ZM276.133 672.843H314.934ZM276.133 717.629V762.421ZM276.133 717.629H314.934ZM276.133 762.421V807.207ZM276.133 762.421H314.934ZM276.133 807.207V852ZM276.133 807.207H314.934ZM276.133 852H314.934ZM314.934 1V45.7893ZM314.934 1H353.725ZM314.934 45.7893V90.5786ZM314.934 45.7893H353.725ZM314.934 90.5786V135.369ZM314.934 90.5786H353.725ZM314.934 135.369V180.158ZM314.934 135.369H353.725ZM314.934 180.158V224.947ZM314.934 180.158H353.725ZM314.934 224.947V269.736ZM314.934 224.947H353.725ZM314.934 269.736V314.529ZM314.934 269.736H353.725ZM314.934 314.529V359.314ZM314.934 314.529H353.725ZM314.934 359.314V404.107ZM314.934 359.314H353.725ZM314.934 404.107V448.893ZM314.934 404.107H353.725ZM314.934 448.893V493.686ZM314.934 448.893H353.725ZM314.934 493.686V538.471ZM314.934 493.686H353.725ZM314.934 538.471V583.264ZM314.934 538.471H353.725ZM314.934 583.264V628.05ZM314.934 583.264H353.725ZM314.934 628.05V672.843ZM314.934 628.05H353.725ZM314.934 672.843V717.629ZM314.934 672.843H353.725ZM314.934 717.629V762.421ZM314.934 717.629H353.725ZM314.934 762.421V807.207ZM314.934 762.421H353.725ZM314.934 807.207V852ZM314.934 807.207H353.725ZM314.934 852H353.725ZM353.725 1V45.7893ZM353.725 1H392.525ZM353.725 45.7893V90.5786ZM353.725 45.7893H392.525ZM353.725 90.5786V135.369ZM353.725 90.5786H392.525ZM353.725 135.369V180.158ZM353.725 135.369H392.525ZM353.725 180.158V224.947ZM353.725 180.158H392.525ZM353.725 224.947V269.736ZM353.725 224.947H392.525ZM353.725 269.736V314.529ZM353.725 269.736H392.525ZM353.725 314.529V359.314ZM353.725 314.529H392.525ZM353.725 359.314V404.107ZM353.725 359.314H392.525ZM353.725 404.107V448.893ZM353.725 404.107H392.525ZM353.725 448.893V493.686ZM353.725 448.893H392.525ZM353.725 493.686V538.471ZM353.725 493.686H392.525ZM353.725 538.471V583.264ZM353.725 538.471H392.525ZM353.725 583.264V628.05ZM353.725 583.264H392.525ZM353.725 628.05V672.843ZM353.725 628.05H392.525ZM353.725 672.843V717.629ZM353.725 672.843H392.525ZM353.725 717.629V762.421ZM353.725 717.629H392.525ZM353.725 762.421V807.207ZM353.725 762.421H392.525ZM353.725 807.207V852ZM353.725 807.207H392.525ZM353.725 852H392.525ZM392.525 1V45.7893ZM392.525 1H431.316ZM392.525 45.7893V90.5786ZM392.525 45.7893H431.316ZM392.525 90.5786V135.369ZM392.525 90.5786H431.316ZM392.525 135.369V180.158ZM392.525 135.369H431.316ZM392.525 180.158V224.947ZM392.525 180.158H431.316ZM392.525 224.947V269.736ZM392.525 224.947H431.316ZM392.525 269.736V314.529ZM392.525 269.736H431.316ZM392.525 314.529V359.314ZM392.525 314.529H431.316ZM392.525 359.314V404.107ZM392.525 359.314H431.316ZM392.525 404.107V448.893ZM392.525 404.107H431.316ZM392.525 448.893V493.686ZM392.525 448.893H431.316ZM392.525 493.686V538.471ZM392.525 493.686H431.316ZM392.525 538.471V583.264ZM392.525 538.471H431.316ZM392.525 583.264V628.05ZM392.525 583.264H431.316ZM392.525 628.05V672.843ZM392.525 628.05H431.316ZM392.525 672.843V717.629ZM392.525 672.843H431.316ZM392.525 717.629V762.421ZM392.525 717.629H431.316ZM392.525 762.421V807.207ZM392.525 762.421H431.316ZM392.525 807.207V852ZM392.525 807.207H431.316ZM392.525 852H431.316ZM431.316 1V45.7893ZM431.316 1H470.117ZM431.316 45.7893V90.5786ZM431.316 45.7893H470.117ZM431.316 90.5786V135.369ZM431.316 90.5786H470.117ZM431.316 135.369V180.158ZM431.316 135.369H470.117ZM431.316 180.158V224.947ZM431.316 180.158H470.117ZM431.316 224.947V269.736ZM431.316 224.947H470.117ZM431.316 269.736V314.529ZM431.316 269.736H470.117ZM431.316 314.529V359.314ZM431.316 314.529H470.117ZM431.316 359.314V404.107ZM431.316 359.314H470.117ZM431.316 404.107V448.893ZM431.316 404.107H470.117ZM431.316 448.893V493.686ZM431.316 448.893H470.117ZM431.316 493.686V538.471ZM431.316 493.686H470.117ZM431.316 538.471V583.264ZM431.316 538.471H470.117ZM431.316 583.264V628.05ZM431.316 583.264H470.117ZM431.316 628.05V672.843ZM431.316 628.05H470.117ZM431.316 672.843V717.629ZM431.316 672.843H470.117ZM431.316 717.629V762.421ZM431.316 717.629H470.117ZM431.316 762.421V807.207ZM431.316 762.421H470.117ZM431.316 807.207V852ZM431.316 807.207H470.117ZM431.316 852H470.117ZM470.117 1V45.7893ZM470.117 1H508.908ZM470.117 45.7893V90.5786ZM470.117 45.7893H508.908ZM470.117 90.5786V135.369ZM470.117 90.5786H508.908ZM470.117 135.369V180.158ZM470.117 135.369H508.908ZM470.117 180.158V224.947ZM470.117 180.158H508.908ZM470.117 224.947V269.736ZM470.117 224.947H508.908ZM470.117 269.736V314.529ZM470.117 269.736H508.908ZM470.117 314.529V359.314ZM470.117 314.529H508.908ZM470.117 359.314V404.107ZM470.117 359.314H508.908ZM470.117 404.107V448.893ZM470.117 404.107H508.908ZM470.117 448.893V493.686ZM470.117 448.893H508.908ZM470.117 493.686V538.471ZM470.117 493.686H508.908ZM470.117 538.471V583.264ZM470.117 538.471H508.908ZM470.117 583.264V628.05ZM470.117 583.264H508.908ZM470.117 628.05V672.843ZM470.117 628.05H508.908ZM470.117 672.843V717.629ZM470.117 672.843H508.908ZM470.117 717.629V762.421ZM470.117 717.629H508.908ZM470.117 762.421V807.207ZM470.117 762.421H508.908ZM470.117 807.207V852ZM470.117 807.207H508.908ZM470.117 852H508.908ZM508.908 1V45.7893ZM508.908 1H547.709ZM508.908 45.7893V90.5786ZM508.908 45.7893H547.709ZM508.908 90.5786V135.369ZM508.908 90.5786H547.709ZM508.908 135.369V180.158ZM508.908 135.369H547.709ZM508.908 180.158V224.947ZM508.908 180.158H547.709ZM508.908 224.947V269.736ZM508.908 224.947H547.709ZM508.908 269.736V314.529ZM508.908 269.736H547.709ZM508.908 314.529V359.314ZM508.908 314.529H547.709ZM508.908 359.314V404.107ZM508.908 359.314H547.709ZM508.908 404.107V448.893ZM508.908 404.107H547.709ZM508.908 448.893V493.686ZM508.908 448.893H547.709ZM508.908 493.686V538.471ZM508.908 493.686H547.709ZM508.908 538.471V583.264ZM508.908 538.471H547.709ZM508.908 583.264V628.05ZM508.908 583.264H547.709ZM508.908 628.05V672.843ZM508.908 628.05H547.709ZM508.908 672.843V717.629ZM508.908 672.843H547.709ZM508.908 717.629V762.421ZM508.908 717.629H547.709ZM508.908 762.421V807.207ZM508.908 762.421H547.709ZM508.908 807.207V852ZM508.908 807.207H547.709ZM508.908 852H547.709ZM547.709 1V45.7893ZM547.709 1H586.5ZM547.709 45.7893V90.5786ZM547.709 45.7893H586.5ZM547.709 90.5786V135.369ZM547.709 90.5786H586.5ZM547.709 135.369V180.158ZM547.709 135.369H586.5ZM547.709 180.158V224.947ZM547.709 180.158H586.5ZM547.709 224.947V269.736ZM547.709 224.947H586.5ZM547.709 269.736V314.529ZM547.709 269.736H586.5ZM547.709 314.529V359.314ZM547.709 314.529H586.5ZM547.709 359.314V404.107ZM547.709 359.314H586.5ZM547.709 404.107V448.893ZM547.709 404.107H586.5ZM547.709 448.893V493.686ZM547.709 448.893H586.5ZM547.709 493.686V538.471ZM547.709 493.686H586.5ZM547.709 538.471V583.264ZM547.709 538.471H586.5ZM547.709 583.264V628.05ZM547.709 583.264H586.5ZM547.709 628.05V672.843ZM547.709 628.05H586.5ZM547.709 672.843V717.629ZM547.709 672.843H586.5ZM547.709 717.629V762.421ZM547.709 717.629H586.5ZM547.709 762.421V807.207ZM547.709 762.421H586.5ZM547.709 807.207V852ZM547.709 807.207H586.5ZM547.709 852H586.5ZM586.5 1V45.7893ZM586.5 1H625.291ZM586.5 45.7893V90.5786ZM586.5 45.7893H625.291ZM586.5 90.5786V135.369ZM586.5 90.5786H625.291ZM586.5 135.369V180.158ZM586.5 135.369H625.291ZM586.5 180.158V224.947ZM586.5 180.158H625.291ZM586.5 224.947V269.736ZM586.5 224.947H625.291ZM586.5 269.736V314.529ZM586.5 269.736H625.291ZM586.5 314.529V359.314ZM586.5 314.529H625.291ZM586.5 359.314V404.107ZM586.5 359.314H625.291ZM586.5 404.107V448.893ZM586.5 404.107H625.291ZM586.5 448.893V493.686ZM586.5 448.893H625.291ZM586.5 493.686V538.471ZM586.5 493.686H625.291ZM586.5 538.471V583.264ZM586.5 538.471H625.291ZM586.5 583.264V628.05ZM586.5 583.264H625.291ZM586.5 628.05V672.843ZM586.5 628.05H625.291ZM586.5 672.843V717.629ZM586.5 672.843H625.291ZM586.5 717.629V762.421ZM586.5 717.629H625.291ZM586.5 762.421V807.207ZM586.5 762.421H625.291ZM586.5 807.207V852ZM586.5 807.207H625.291ZM586.5 852H625.291ZM625.291 1V45.7893ZM625.291 1H664.092ZM625.291 45.7893V90.5786ZM625.291 45.7893H664.092ZM625.291 90.5786V135.369ZM625.291 90.5786H664.092ZM625.291 135.369V180.158ZM625.291 135.369H664.092ZM625.291 180.158V224.947ZM625.291 180.158H664.092ZM625.291 224.947V269.736ZM625.291 224.947H664.092ZM625.291 269.736V314.529ZM625.291 269.736H664.092ZM625.291 314.529V359.314ZM625.291 314.529H664.092ZM625.291 359.314V404.107ZM625.291 359.314H664.092ZM625.291 404.107V448.893ZM625.291 404.107H664.092ZM625.291 448.893V493.686ZM625.291 448.893H664.092ZM625.291 493.686V538.471ZM625.291 493.686H664.092ZM625.291 538.471V583.264ZM625.291 538.471H664.092ZM625.291 583.264V628.05ZM625.291 583.264H664.092ZM625.291 628.05V672.843ZM625.291 628.05H664.092ZM625.291 672.843V717.629ZM625.291 672.843H664.092ZM625.291 717.629V762.421ZM625.291 717.629H664.092ZM625.291 762.421V807.207ZM625.291 762.421H664.092ZM625.291 807.207V852ZM625.291 807.207H664.092ZM625.291 852H664.092ZM664.092 1V45.7893ZM664.092 1H702.883ZM664.092 45.7893V90.5786ZM664.092 45.7893H702.883ZM664.092 90.5786V135.369ZM664.092 90.5786H702.883ZM664.092 135.369V180.158ZM664.092 135.369H702.883ZM664.092 180.158V224.947ZM664.092 180.158H702.883ZM664.092 224.947V269.736ZM664.092 224.947H702.883ZM664.092 269.736V314.529ZM664.092 269.736H702.883ZM664.092 314.529V359.314ZM664.092 314.529H702.883ZM664.092 359.314V404.107ZM664.092 359.314H702.883ZM664.092 404.107V448.893ZM664.092 404.107H702.883ZM664.092 448.893V493.686ZM664.092 448.893H702.883ZM664.092 493.686V538.471ZM664.092 493.686H702.883ZM664.092 538.471V583.264ZM664.092 538.471H702.883ZM664.092 583.264V628.05ZM664.092 583.264H702.883ZM664.092 628.05V672.843ZM664.092 628.05H702.883ZM664.092 672.843V717.629ZM664.092 672.843H702.883ZM664.092 717.629V762.421ZM664.092 717.629H702.883ZM664.092 762.421V807.207ZM664.092 762.421H702.883ZM664.092 807.207V852ZM664.092 807.207H702.883ZM664.092 852H702.883ZM702.883 1V45.7893ZM702.883 1H741.684ZM702.883 45.7893V90.5786ZM702.883 45.7893H741.684ZM702.883 90.5786V135.369ZM702.883 90.5786H741.684ZM702.883 135.369V180.158ZM702.883 135.369H741.684ZM702.883 180.158V224.947ZM702.883 180.158H741.684ZM702.883 224.947V269.736ZM702.883 224.947H741.684ZM702.883 269.736V314.529ZM702.883 269.736H741.684ZM702.883 314.529V359.314ZM702.883 314.529H741.684ZM702.883 359.314V404.107ZM702.883 359.314H741.684ZM702.883 404.107V448.893ZM702.883 404.107H741.684ZM702.883 448.893V493.686ZM702.883 448.893H741.684ZM702.883 493.686V538.471ZM702.883 493.686H741.684ZM702.883 538.471V583.264ZM702.883 538.471H741.684ZM702.883 583.264V628.05ZM702.883 583.264H741.684ZM702.883 628.05V672.843ZM702.883 628.05H741.684ZM702.883 672.843V717.629ZM702.883 672.843H741.684ZM702.883 717.629V762.421ZM702.883 717.629H741.684ZM702.883 762.421V807.207ZM702.883 762.421H741.684ZM702.883 807.207V852ZM702.883 807.207H741.684ZM702.883 852H741.684ZM741.684 1V45.7893ZM741.684 1H780.475ZM741.684 45.7893V90.5786ZM741.684 45.7893H780.475ZM741.684 90.5786V135.369ZM741.684 90.5786H780.475ZM741.684 135.369V180.158ZM741.684 135.369H780.475ZM741.684 180.158V224.947ZM741.684 180.158H780.475ZM741.684 224.947V269.736ZM741.684 224.947H780.475ZM741.684 269.736V314.529ZM741.684 269.736H780.475ZM741.684 314.529V359.314ZM741.684 314.529H780.475ZM741.684 359.314V404.107ZM741.684 359.314H780.475ZM741.684 404.107V448.893ZM741.684 404.107H780.475ZM741.684 448.893V493.686ZM741.684 448.893H780.475ZM741.684 493.686V538.471ZM741.684 493.686H780.475ZM741.684 538.471V583.264ZM741.684 538.471H780.475ZM741.684 583.264V628.05ZM741.684 583.264H780.475ZM741.684 628.05V672.843ZM741.684 628.05H780.475ZM741.684 672.843V717.629ZM741.684 672.843H780.475ZM741.684 717.629V762.421ZM741.684 717.629H780.475ZM741.684 762.421V807.207ZM741.684 762.421H780.475ZM741.684 807.207V852ZM741.684 807.207H780.475ZM741.684 852H780.475ZM780.475 1V45.7893ZM780.475 1H819.275ZM780.475 45.7893V90.5786ZM780.475 45.7893H819.275ZM780.475 90.5786V135.369ZM780.475 90.5786H819.275ZM780.475 135.369V180.158ZM780.475 135.369H819.275ZM780.475 180.158V224.947ZM780.475 180.158H819.275ZM780.475 224.947V269.736ZM780.475 224.947H819.275ZM780.475 269.736V314.529ZM780.475 269.736H819.275ZM780.475 314.529V359.314ZM780.475 314.529H819.275ZM780.475 359.314V404.107ZM780.475 359.314H819.275ZM780.475 404.107V448.893ZM780.475 404.107H819.275ZM780.475 448.893V493.686ZM780.475 448.893H819.275ZM780.475 493.686V538.471ZM780.475 493.686H819.275ZM780.475 538.471V583.264ZM780.475 538.471H819.275ZM780.475 583.264V628.05ZM780.475 583.264H819.275ZM780.475 628.05V672.843ZM780.475 628.05H819.275ZM780.475 672.843V717.629ZM780.475 672.843H819.275ZM780.475 717.629V762.421ZM780.475 717.629H819.275ZM780.475 762.421V807.207ZM780.475 762.421H819.275ZM780.475 807.207V852ZM780.475 807.207H819.275ZM780.475 852H819.275ZM819.275 1V45.7893ZM819.275 1H858.066ZM819.275 45.7893V90.5786ZM819.275 45.7893H858.066ZM819.275 90.5786V135.369ZM819.275 90.5786H858.066ZM819.275 135.369V180.158ZM819.275 135.369H858.066ZM819.275 180.158V224.947ZM819.275 180.158H858.066ZM819.275 224.947V269.736ZM819.275 224.947H858.066ZM819.275 269.736V314.529ZM819.275 269.736H858.066ZM819.275 314.529V359.314ZM819.275 314.529H858.066ZM819.275 359.314V404.107ZM819.275 359.314H858.066ZM819.275 404.107V448.893ZM819.275 404.107H858.066ZM819.275 448.893V493.686ZM819.275 448.893H858.066ZM819.275 493.686V538.471ZM819.275 493.686H858.066ZM819.275 538.471V583.264ZM819.275 538.471H858.066ZM819.275 583.264V628.05ZM819.275 583.264H858.066ZM819.275 628.05V672.843ZM819.275 628.05H858.066ZM819.275 672.843V717.629ZM819.275 672.843H858.066ZM819.275 717.629V762.421ZM819.275 717.629H858.066ZM819.275 762.421V807.207ZM819.275 762.421H858.066ZM819.275 807.207V852ZM819.275 807.207H858.066ZM819.275 852H858.066ZM858.066 1V45.7893ZM858.066 1H896.867ZM858.066 45.7893V90.5786ZM858.066 45.7893H896.867ZM858.066 90.5786V135.369ZM858.066 90.5786H896.867ZM858.066 135.369V180.158ZM858.066 135.369H896.867ZM858.066 180.158V224.947ZM858.066 180.158H896.867ZM858.066 224.947V269.736ZM858.066 224.947H896.867ZM858.066 269.736V314.529ZM858.066 269.736H896.867ZM858.066 314.529V359.314ZM858.066 314.529H896.867ZM858.066 359.314V404.107ZM858.066 359.314H896.867ZM858.066 404.107V448.893ZM858.066 404.107H896.867ZM858.066 448.893V493.686ZM858.066 448.893H896.867ZM858.066 493.686V538.471ZM858.066 493.686H896.867ZM858.066 538.471V583.264ZM858.066 538.471H896.867ZM858.066 583.264V628.05ZM858.066 583.264H896.867ZM858.066 628.05V672.843ZM858.066 628.05H896.867ZM858.066 672.843V717.629ZM858.066 672.843H896.867ZM858.066 717.629V762.421ZM858.066 717.629H896.867ZM858.066 762.421V807.207ZM858.066 762.421H896.867ZM858.066 807.207V852ZM858.066 807.207H896.867ZM858.066 852H896.867ZM896.867 1V45.7893ZM896.867 1H935.658ZM896.867 45.7893V90.5786ZM896.867 45.7893H935.658ZM896.867 90.5786V135.369ZM896.867 90.5786H935.658ZM896.867 135.369V180.158ZM896.867 135.369H935.658ZM896.867 180.158V224.947ZM896.867 180.158H935.658ZM896.867 224.947V269.736ZM896.867 224.947H935.658ZM896.867 269.736V314.529ZM896.867 269.736H935.658ZM896.867 314.529V359.314ZM896.867 314.529H935.658ZM896.867 359.314V404.107ZM896.867 359.314H935.658ZM896.867 404.107V448.893ZM896.867 404.107H935.658ZM896.867 448.893V493.686ZM896.867 448.893H935.658ZM896.867 493.686V538.471ZM896.867 493.686H935.658ZM896.867 538.471V583.264ZM896.867 538.471H935.658ZM896.867 583.264V628.05ZM896.867 583.264H935.658ZM896.867 628.05V672.843ZM896.867 628.05H935.658ZM896.867 672.843V717.629ZM896.867 672.843H935.658ZM896.867 717.629V762.421ZM896.867 717.629H935.658ZM896.867 762.421V807.207ZM896.867 762.421H935.658ZM896.867 807.207V852ZM896.867 807.207H935.658ZM896.867 852H935.658ZM935.658 1V45.7893ZM935.658 1H974.459ZM935.658 45.7893V90.5786ZM935.658 45.7893H974.459ZM935.658 90.5786V135.369ZM935.658 90.5786H974.459ZM935.658 135.369V180.158ZM935.658 135.369H974.459ZM935.658 180.158V224.947ZM935.658 180.158H974.459ZM935.658 224.947V269.736ZM935.658 224.947H974.459ZM935.658 269.736V314.529ZM935.658 269.736H974.459ZM935.658 314.529V359.314ZM935.658 314.529H974.459ZM935.658 359.314V404.107ZM935.658 359.314H974.459ZM935.658 404.107V448.893ZM935.658 404.107H974.459ZM935.658 448.893V493.686ZM935.658 448.893H974.459ZM935.658 493.686V538.471ZM935.658 493.686H974.459ZM935.658 538.471V583.264ZM935.658 538.471H974.459ZM935.658 583.264V628.05ZM935.658 583.264H974.459ZM935.658 628.05V672.843ZM935.658 628.05H974.459ZM935.658 672.843V717.629ZM935.658 672.843H974.459ZM935.658 717.629V762.421ZM935.658 717.629H974.459ZM935.658 762.421V807.207ZM935.658 762.421H974.459ZM935.658 807.207V852ZM935.658 807.207H974.459ZM935.658 852H974.459ZM974.459 1V45.7893ZM974.459 1H1013.25ZM974.459 45.7893V90.5786ZM974.459 45.7893H1013.25ZM974.459 90.5786V135.369ZM974.459 90.5786H1013.25ZM974.459 135.369V180.158ZM974.459 135.369H1013.25ZM974.459 180.158V224.947ZM974.459 180.158H1013.25ZM974.459 224.947V269.736ZM974.459 224.947H1013.25ZM974.459 269.736V314.529ZM974.459 269.736H1013.25ZM974.459 314.529V359.314ZM974.459 314.529H1013.25ZM974.459 359.314V404.107ZM974.459 359.314H1013.25ZM974.459 404.107V448.893ZM974.459 404.107H1013.25ZM974.459 448.893V493.686ZM974.459 448.893H1013.25ZM974.459 493.686V538.471ZM974.459 493.686H1013.25ZM974.459 538.471V583.264ZM974.459 538.471H1013.25ZM974.459 583.264V628.05ZM974.459 583.264H1013.25ZM974.459 628.05V672.843ZM974.459 628.05H1013.25ZM974.459 672.843V717.629ZM974.459 672.843H1013.25ZM974.459 717.629V762.421ZM974.459 717.629H1013.25ZM974.459 762.421V807.207ZM974.459 762.421H1013.25ZM974.459 807.207V852ZM974.459 807.207H1013.25ZM974.459 852H1013.25ZM1013.25 1V45.7893ZM1013.25 1H1052.04ZM1013.25 45.7893V90.5786ZM1013.25 45.7893H1052.04ZM1013.25 90.5786V135.369ZM1013.25 90.5786H1052.04ZM1013.25 135.369V180.158ZM1013.25 135.369H1052.04ZM1013.25 180.158V224.947ZM1013.25 180.158H1052.04ZM1013.25 224.947V269.736ZM1013.25 224.947H1052.04ZM1013.25 269.736V314.529ZM1013.25 269.736H1052.04ZM1013.25 314.529V359.314ZM1013.25 314.529H1052.04ZM1013.25 359.314V404.107ZM1013.25 359.314H1052.04ZM1013.25 404.107V448.893ZM1013.25 404.107H1052.04ZM1013.25 448.893V493.686ZM1013.25 448.893H1052.04ZM1013.25 493.686V538.471ZM1013.25 493.686H1052.04ZM1013.25 538.471V583.264ZM1013.25 538.471H1052.04ZM1013.25 583.264V628.05ZM1013.25 583.264H1052.04ZM1013.25 628.05V672.843ZM1013.25 628.05H1052.04ZM1013.25 672.843V717.629ZM1013.25 672.843H1052.04ZM1013.25 717.629V762.421ZM1013.25 717.629H1052.04ZM1013.25 762.421V807.207ZM1013.25 762.421H1052.04ZM1013.25 807.207V852ZM1013.25 807.207H1052.04ZM1013.25 852H1052.04ZM1052.04 1V45.7893ZM1052.04 1H1090.84ZM1052.04 45.7893V90.5786ZM1052.04 45.7893H1090.84ZM1052.04 90.5786V135.369ZM1052.04 90.5786H1090.84ZM1052.04 135.369V180.158ZM1052.04 135.369H1090.84ZM1052.04 180.158V224.947ZM1052.04 180.158H1090.84ZM1052.04 224.947V269.736ZM1052.04 224.947H1090.84ZM1052.04 269.736V314.529ZM1052.04 269.736H1090.84ZM1052.04 314.529V359.314ZM1052.04 314.529H1090.84ZM1052.04 359.314V404.107ZM1052.04 359.314H1090.84ZM1052.04 404.107V448.893ZM1052.04 404.107H1090.84ZM1052.04 448.893V493.686ZM1052.04 448.893H1090.84ZM1052.04 493.686V538.471ZM1052.04 493.686H1090.84ZM1052.04 538.471V583.264ZM1052.04 538.471H1090.84ZM1052.04 583.264V628.05ZM1052.04 583.264H1090.84ZM1052.04 628.05V672.843ZM1052.04 628.05H1090.84ZM1052.04 672.843V717.629ZM1052.04 672.843H1090.84ZM1052.04 717.629V762.421ZM1052.04 717.629H1090.84ZM1052.04 762.421V807.207ZM1052.04 762.421H1090.84ZM1052.04 807.207V852ZM1052.04 807.207H1090.84ZM1052.04 852H1090.84ZM1090.84 1V45.7893ZM1090.84 1H1129.63ZM1090.84 45.7893V90.5786ZM1090.84 45.7893H1129.63ZM1090.84 90.5786V135.369ZM1090.84 90.5786H1129.63ZM1090.84 135.369V180.158ZM1090.84 135.369H1129.63ZM1090.84 180.158V224.947ZM1090.84 180.158H1129.63ZM1090.84 224.947V269.736ZM1090.84 224.947H1129.63ZM1090.84 269.736V314.529ZM1090.84 269.736H1129.63ZM1090.84 314.529V359.314ZM1090.84 314.529H1129.63ZM1090.84 359.314V404.107ZM1090.84 359.314H1129.63ZM1090.84 404.107V448.893ZM1090.84 404.107H1129.63ZM1090.84 448.893V493.686ZM1090.84 448.893H1129.63ZM1090.84 493.686V538.471ZM1090.84 493.686H1129.63ZM1090.84 538.471V583.264ZM1090.84 538.471H1129.63ZM1090.84 583.264V628.05ZM1090.84 583.264H1129.63ZM1090.84 628.05V672.843ZM1090.84 628.05H1129.63ZM1090.84 672.843V717.629ZM1090.84 672.843H1129.63ZM1090.84 717.629V762.421ZM1090.84 717.629H1129.63ZM1090.84 762.421V807.207ZM1090.84 762.421H1129.63ZM1090.84 807.207V852ZM1090.84 807.207H1129.63ZM1090.84 852H1129.63ZM1129.63 1V45.7893ZM1129.63 1H1168.43ZM1129.63 45.7893V90.5786ZM1129.63 45.7893H1168.43ZM1129.63 90.5786V135.369ZM1129.63 90.5786H1168.43ZM1129.63 135.369V180.158ZM1129.63 135.369H1168.43ZM1129.63 180.158V224.947ZM1129.63 180.158H1168.43ZM1129.63 224.947V269.736ZM1129.63 224.947H1168.43ZM1129.63 269.736V314.529ZM1129.63 269.736H1168.43ZM1129.63 314.529V359.314ZM1129.63 314.529H1168.43ZM1129.63 359.314V404.107ZM1129.63 359.314H1168.43ZM1129.63 404.107V448.893ZM1129.63 404.107H1168.43ZM1129.63 448.893V493.686ZM1129.63 448.893H1168.43ZM1129.63 493.686V538.471ZM1129.63 493.686H1168.43ZM1129.63 538.471V583.264ZM1129.63 538.471H1168.43ZM1129.63 583.264V628.05ZM1129.63 583.264H1168.43ZM1129.63 628.05V672.843ZM1129.63 628.05H1168.43ZM1129.63 672.843V717.629ZM1129.63 672.843H1168.43ZM1129.63 717.629V762.421ZM1129.63 717.629H1168.43ZM1129.63 762.421V807.207ZM1129.63 762.421H1168.43ZM1129.63 807.207V852ZM1129.63 807.207H1168.43ZM1129.63 852H1168.43ZM1168.43 1V45.7893ZM1168.43 1H1207.22ZM1168.43 45.7893V90.5786ZM1168.43 45.7893H1207.22ZM1168.43 90.5786V135.369ZM1168.43 90.5786H1207.22ZM1168.43 135.369V180.158ZM1168.43 135.369H1207.22ZM1168.43 180.158V224.947ZM1168.43 180.158H1207.22ZM1168.43 224.947V269.736ZM1168.43 224.947H1207.22ZM1168.43 269.736V314.529ZM1168.43 269.736H1207.22ZM1168.43 314.529V359.314ZM1168.43 314.529H1207.22ZM1168.43 359.314V404.107ZM1168.43 359.314H1207.22ZM1168.43 404.107V448.893ZM1168.43 404.107H1207.22ZM1168.43 448.893V493.686ZM1168.43 448.893H1207.22ZM1168.43 493.686V538.471ZM1168.43 493.686H1207.22ZM1168.43 538.471V583.264ZM1168.43 538.471H1207.22ZM1168.43 583.264V628.05ZM1168.43 583.264H1207.22ZM1168.43 628.05V672.843ZM1168.43 628.05H1207.22ZM1168.43 672.843V717.629ZM1168.43 672.843H1207.22ZM1168.43 717.629V762.421ZM1168.43 717.629H1207.22ZM1168.43 762.421V807.207ZM1168.43 762.421H1207.22ZM1168.43 807.207V852ZM1168.43 807.207H1207.22ZM1168.43 852H1207.22ZM1207.22 1V45.7893ZM1207.22 1H1246.03ZM1207.22 45.7893V90.5786ZM1207.22 45.7893H1246.03ZM1207.22 90.5786V135.369ZM1207.22 90.5786H1246.03ZM1207.22 135.369V180.158ZM1207.22 135.369H1246.03ZM1207.22 180.158V224.947ZM1207.22 180.158H1246.03ZM1207.22 224.947V269.736ZM1207.22 224.947H1246.03ZM1207.22 269.736V314.529ZM1207.22 269.736H1246.03ZM1207.22 314.529V359.314ZM1207.22 314.529H1246.03ZM1207.22 359.314V404.107ZM1207.22 359.314H1246.03ZM1207.22 404.107V448.893ZM1207.22 404.107H1246.03ZM1207.22 448.893V493.686ZM1207.22 448.893H1246.03ZM1207.22 493.686V538.471ZM1207.22 493.686H1246.03ZM1207.22 538.471V583.264ZM1207.22 538.471H1246.03ZM1207.22 583.264V628.05ZM1207.22 583.264H1246.03ZM1207.22 628.05V672.843ZM1207.22 628.05H1246.03ZM1207.22 672.843V717.629ZM1207.22 672.843H1246.03ZM1207.22 717.629V762.421ZM1207.22 717.629H1246.03ZM1207.22 762.421V807.207ZM1207.22 762.421H1246.03ZM1207.22 807.207V852ZM1207.22 807.207H1246.03ZM1207.22 852H1246.03ZM1246.03 1V45.7893ZM1246.03 1H1284.82ZM1246.03 45.7893V90.5786ZM1246.03 45.7893H1284.82ZM1246.03 90.5786V135.369ZM1246.03 90.5786H1284.82ZM1246.03 135.369V180.158ZM1246.03 135.369H1284.82ZM1246.03 180.158V224.947ZM1246.03 180.158H1284.82ZM1246.03 224.947V269.736ZM1246.03 224.947H1284.82ZM1246.03 269.736V314.529ZM1246.03 269.736H1284.82ZM1246.03 314.529V359.314ZM1246.03 314.529H1284.82ZM1246.03 359.314V404.107ZM1246.03 359.314H1284.82ZM1246.03 404.107V448.893ZM1246.03 404.107H1284.82ZM1246.03 448.893V493.686ZM1246.03 448.893H1284.82ZM1246.03 493.686V538.471ZM1246.03 493.686H1284.82ZM1246.03 538.471V583.264ZM1246.03 538.471H1284.82ZM1246.03 583.264V628.05ZM1246.03 583.264H1284.82ZM1246.03 628.05V672.843ZM1246.03 628.05H1284.82ZM1246.03 672.843V717.629ZM1246.03 672.843H1284.82ZM1246.03 717.629V762.421ZM1246.03 717.629H1284.82ZM1246.03 762.421V807.207ZM1246.03 762.421H1284.82ZM1246.03 807.207V852ZM1246.03 807.207H1284.82ZM1246.03 852H1284.82ZM1284.82 1V45.7893ZM1284.82 1H1323.62ZM1284.82 45.7893V90.5786ZM1284.82 45.7893H1323.62ZM1284.82 90.5786V135.369ZM1284.82 90.5786H1323.62ZM1284.82 135.369V180.158ZM1284.82 135.369H1323.62ZM1284.82 180.158V224.947ZM1284.82 180.158H1323.62ZM1284.82 224.947V269.736ZM1284.82 224.947H1323.62ZM1284.82 269.736V314.529ZM1284.82 269.736H1323.62ZM1284.82 314.529V359.314ZM1284.82 314.529H1323.62ZM1284.82 359.314V404.107ZM1284.82 359.314H1323.62ZM1284.82 404.107V448.893ZM1284.82 404.107H1323.62ZM1284.82 448.893V493.686ZM1284.82 448.893H1323.62ZM1284.82 493.686V538.471ZM1284.82 493.686H1323.62ZM1284.82 538.471V583.264ZM1284.82 538.471H1323.62ZM1284.82 583.264V628.05ZM1284.82 583.264H1323.62ZM1284.82 628.05V672.843ZM1284.82 628.05H1323.62ZM1284.82 672.843V717.629ZM1284.82 672.843H1323.62ZM1284.82 717.629V762.421ZM1284.82 717.629H1323.62ZM1284.82 762.421V807.207ZM1284.82 762.421H1323.62ZM1284.82 807.207V852ZM1284.82 807.207H1323.62ZM1284.82 852H1323.62ZM1323.62 1V45.7893ZM1323.62 1H1362.41ZM1323.62 45.7893V90.5786ZM1323.62 45.7893H1362.41ZM1323.62 90.5786V135.369ZM1323.62 90.5786H1362.41ZM1323.62 135.369V180.158ZM1323.62 135.369H1362.41ZM1323.62 180.158V224.947ZM1323.62 180.158H1362.41ZM1323.62 224.947V269.736ZM1323.62 224.947H1362.41ZM1323.62 269.736V314.529ZM1323.62 269.736H1362.41ZM1323.62 314.529V359.314ZM1323.62 314.529H1362.41ZM1323.62 359.314V404.107ZM1323.62 359.314H1362.41ZM1323.62 404.107V448.893ZM1323.62 404.107H1362.41ZM1323.62 448.893V493.686ZM1323.62 448.893H1362.41ZM1323.62 493.686V538.471ZM1323.62 493.686H1362.41ZM1323.62 538.471V583.264ZM1323.62 538.471H1362.41ZM1323.62 583.264V628.05ZM1323.62 583.264H1362.41ZM1323.62 628.05V672.843ZM1323.62 628.05H1362.41ZM1323.62 672.843V717.629ZM1323.62 672.843H1362.41ZM1323.62 717.629V762.421ZM1323.62 717.629H1362.41ZM1323.62 762.421V807.207ZM1323.62 762.421H1362.41ZM1323.62 807.207V852ZM1323.62 807.207H1362.41ZM1323.62 852H1362.41ZM1362.41 1V45.7893ZM1362.41 1H1401.21ZM1362.41 45.7893V90.5786ZM1362.41 45.7893H1401.21ZM1362.41 90.5786V135.369ZM1362.41 90.5786H1401.21ZM1362.41 135.369V180.158ZM1362.41 135.369H1401.21ZM1362.41 180.158V224.947ZM1362.41 180.158H1401.21ZM1362.41 224.947V269.736ZM1362.41 224.947H1401.21ZM1362.41 269.736V314.529ZM1362.41 269.736H1401.21ZM1362.41 314.529V359.314ZM1362.41 314.529H1401.21ZM1362.41 359.314V404.107ZM1362.41 359.314H1401.21ZM1362.41 404.107V448.893ZM1362.41 404.107H1401.21ZM1362.41 448.893V493.686ZM1362.41 448.893H1401.21ZM1362.41 493.686V538.471ZM1362.41 493.686H1401.21ZM1362.41 538.471V583.264ZM1362.41 538.471H1401.21ZM1362.41 583.264V628.05ZM1362.41 583.264H1401.21ZM1362.41 628.05V672.843ZM1362.41 628.05H1401.21ZM1362.41 672.843V717.629ZM1362.41 672.843H1401.21ZM1362.41 717.629V762.421ZM1362.41 717.629H1401.21ZM1362.41 762.421V807.207ZM1362.41 762.421H1401.21ZM1362.41 807.207V852ZM1362.41 807.207H1401.21ZM1362.41 852H1401.21ZM1401.21 1V45.7893ZM1401.21 1L1419.42 19.147L1440 45.7893M1401.21 45.7893V90.5786ZM1401.21 45.7893H1440ZM1401.21 90.5786V135.369ZM1401.21 90.5786H1440ZM1401.21 135.369V180.158ZM1401.21 135.369H1440ZM1401.21 180.158V224.947ZM1401.21 180.158H1440ZM1401.21 224.947V269.736ZM1401.21 224.947H1440ZM1401.21 269.736V314.529ZM1401.21 269.736H1440ZM1401.21 314.529V359.314ZM1401.21 314.529H1440ZM1401.21 359.314V404.107ZM1401.21 359.314H1440ZM1401.21 404.107V448.893ZM1401.21 404.107H1440ZM1401.21 448.893V493.686ZM1401.21 448.893H1440ZM1401.21 493.686V538.471ZM1401.21 493.686H1440ZM1401.21 538.471V583.264ZM1401.21 538.471H1440ZM1401.21 583.264V628.05ZM1401.21 583.264H1440ZM1401.21 628.05V672.843ZM1401.21 628.05H1440ZM1401.21 672.843V717.629ZM1401.21 672.843H1440ZM1401.21 717.629V762.421ZM1401.21 717.629H1440ZM1401.21 762.421V807.207ZM1401.21 762.421H1440ZM1401.21 807.207V852ZM1401.21 807.207H1440ZM1401.21 852L1415.74 836.241L1440 807.207M1440 45.7893V90.5786ZM1440 90.5786V135.369ZM1440 135.369V180.158ZM1440 180.158V224.947ZM1440 224.947V269.736ZM1440 269.736V314.529ZM1440 314.529V359.314ZM1440 359.314V404.107ZM1440 404.107V448.893ZM1440 448.893V493.686ZM1440 493.686V538.471ZM1440 538.471V583.264ZM1440 583.264V628.05ZM1440 628.05V672.843ZM1440 672.843V717.629ZM1440 717.629V762.421ZM1440 762.421V807.207Z" fill="black"/>
<path d="M-228.204 1H-267V45.7893M-228.204 1V45.7893M-228.204 1H-189.409M-267 45.7893H-228.204M-267 45.7893V90.5786M-228.204 45.7893V90.5786M-228.204 45.7893H-189.409M-189.409 1V45.7893M-189.409 1H-150.613M-228.204 90.5786H-267M-228.204 90.5786V135.369M-228.204 90.5786H-189.409M-189.409 45.7893V90.5786M-189.409 45.7893H-150.613M-267 90.5786V135.369M-228.204 135.369H-267M-228.204 135.369V180.158M-228.204 135.369H-189.409M-189.409 90.5786V135.369M-189.409 90.5786H-150.613M-267 135.369V180.158M-228.204 180.158H-267M-228.204 180.158V224.947M-228.204 180.158H-189.409M-189.409 135.369V180.158M-189.409 135.369H-150.613M-267 180.158V224.947M-228.204 224.947H-267M-228.204 224.947V269.736M-228.204 224.947H-189.409M-189.409 180.158V224.947M-189.409 180.158H-150.613M-267 224.947V269.736M-228.204 269.736H-267M-228.204 269.736V314.529M-228.204 269.736H-189.409M-189.409 224.947V269.736M-189.409 224.947H-150.613M-267 269.736V314.529M-228.204 314.529H-267M-228.204 314.529V359.314M-228.204 314.529H-189.409M-189.409 269.736V314.529M-189.409 269.736H-150.613M-267 314.529V359.314M-228.204 359.314H-267M-228.204 359.314V404.107M-228.204 359.314H-189.409M-189.409 314.529V359.314M-189.409 314.529H-150.613M-267 359.314V404.107M-228.204 404.107H-267M-228.204 404.107V448.893M-228.204 404.107H-189.409M-189.409 359.314V404.107M-189.409 359.314H-150.613M-267 404.107V448.893M-228.204 448.893H-267M-228.204 448.893V493.686M-228.204 448.893H-189.409M-189.409 404.107V448.893M-189.409 404.107H-150.613M-267 448.893V493.686M-228.204 493.686H-267M-228.204 493.686V538.471M-228.204 493.686H-189.409M-189.409 448.893V493.686M-189.409 448.893H-150.613M-267 493.686V538.471M-228.204 538.471H-267M-228.204 538.471V583.264M-228.204 538.471H-189.409M-189.409 493.686V538.471M-189.409 493.686H-150.613M-267 538.471V583.264M-228.204 583.264H-267M-228.204 583.264V628.05M-228.204 583.264H-189.409M-189.409 538.471V583.264M-189.409 538.471H-150.613M-267 583.264V628.05M-228.204 628.05H-267M-228.204 628.05V672.843M-228.204 628.05H-189.409M-189.409 583.264V628.05M-189.409 583.264H-150.613M-267 628.05V672.843M-228.204 672.843H-267M-228.204 672.843V717.629M-228.204 672.843H-189.409M-189.409 628.05V672.843M-189.409 628.05H-150.613M-267 672.843V717.629M-228.204 717.629H-267M-228.204 717.629V762.421M-228.204 717.629H-189.409M-189.409 672.843V717.629M-189.409 672.843H-150.613M-267 717.629V762.421M-228.204 762.421H-267M-228.204 762.421V807.207M-228.204 762.421H-189.409M-189.409 717.629V762.421M-189.409 717.629H-150.613M-267 762.421V807.207M-228.204 807.207H-267M-228.204 807.207V852M-228.204 807.207H-189.409M-189.409 762.421V807.207M-189.409 762.421H-150.613M-267 807.207V852H-228.204M-228.204 852H-189.409M-189.409 807.207V852M-189.409 807.207H-150.613M-189.409 852H-150.613M-150.613 1V45.7893M-150.613 1H-111.816M-150.613 45.7893V90.5786M-150.613 45.7893H-111.816M-150.613 90.5786V135.369M-150.613 90.5786H-111.816M-150.613 135.369V180.158M-150.613 135.369H-111.816M-150.613 180.158V224.947M-150.613 180.158H-111.816M-150.613 224.947V269.736M-150.613 224.947H-111.816M-150.613 269.736V314.529M-150.613 269.736H-111.816M-150.613 314.529V359.314M-150.613 314.529H-111.816M-150.613 359.314V404.107M-150.613 359.314H-111.816M-150.613 404.107V448.893M-150.613 404.107H-111.816M-150.613 448.893V493.686M-150.613 448.893H-111.816M-150.613 493.686V538.471M-150.613 493.686H-111.816M-150.613 538.471V583.264M-150.613 538.471H-111.816M-150.613 583.264V628.05M-150.613 583.264H-111.816M-150.613 628.05V672.843M-150.613 628.05H-111.816M-150.613 672.843V717.629M-150.613 672.843H-111.816M-150.613 717.629V762.421M-150.613 717.629H-111.816M-150.613 762.421V807.207M-150.613 762.421H-111.816M-150.613 807.207V852M-150.613 807.207H-111.816M-150.613 852H-111.816M-111.816 1V45.7893M-111.816 1H-73.0254M-111.816 45.7893V90.5786M-111.816 45.7893H-73.0254M-111.816 90.5786V135.369M-111.816 90.5786H-73.0254M-111.816 135.369V180.158M-111.816 135.369H-73.0254M-111.816 180.158V224.947M-111.816 180.158H-73.0254M-111.816 224.947V269.736M-111.816 224.947H-73.0254M-111.816 269.736V314.529M-111.816 269.736H-73.0254M-111.816 314.529V359.314M-111.816 314.529H-73.0254M-111.816 359.314V404.107M-111.816 359.314H-73.0254M-111.816 404.107V448.893M-111.816 404.107H-73.0254M-111.816 448.893V493.686M-111.816 448.893H-73.0254M-111.816 493.686V538.471M-111.816 493.686H-73.0254M-111.816 538.471V583.264M-111.816 538.471H-73.0254M-111.816 583.264V628.05M-111.816 583.264H-73.0254M-111.816 628.05V672.843M-111.816 628.05H-73.0254M-111.816 672.843V717.629M-111.816 672.843H-73.0254M-111.816 717.629V762.421M-111.816 717.629H-73.0254M-111.816 762.421V807.207M-111.816 762.421H-73.0254M-111.816 807.207V852M-111.816 807.207H-73.0254M-111.816 852H-73.0254M-73.0254 1V45.7893M-73.0254 1H-34.2246M-73.0254 45.7893V90.5786M-73.0254 45.7893H-34.2246M-73.0254 90.5786V135.369M-73.0254 90.5786H-34.2246M-73.0254 135.369V180.158M-73.0254 135.369H-34.2246M-73.0254 180.158V224.947M-73.0254 180.158H-34.2246M-73.0254 224.947V269.736M-73.0254 224.947H-34.2246M-73.0254 269.736V314.529M-73.0254 269.736H-34.2246M-73.0254 314.529V359.314M-73.0254 314.529H-34.2246M-73.0254 359.314V404.107M-73.0254 359.314H-34.2246M-73.0254 404.107V448.893M-73.0254 404.107H-34.2246M-73.0254 448.893V493.686M-73.0254 448.893H-34.2246M-73.0254 493.686V538.471M-73.0254 493.686H-34.2246M-73.0254 538.471V583.264M-73.0254 538.471H-34.2246M-73.0254 583.264V628.05M-73.0254 583.264H-34.2246M-73.0254 628.05V672.843M-73.0254 628.05H-34.2246M-73.0254 672.843V717.629M-73.0254 672.843H-34.2246M-73.0254 717.629V762.421M-73.0254 717.629H-34.2246M-73.0254 762.421V807.207M-73.0254 762.421H-34.2246M-73.0254 807.207V852M-73.0254 807.207H-34.2246M-73.0254 852H-34.2246M-34.2246 1V45.7893M-34.2246 1H4.5664M-34.2246 45.7893V90.5786M-34.2246 45.7893H4.5664M-34.2246 90.5786V135.369M-34.2246 90.5786H4.5664M-34.2246 135.369V180.158M-34.2246 135.369H4.5664M-34.2246 180.158V224.947M-34.2246 180.158H4.5664M-34.2246 224.947V269.736M-34.2246 224.947H4.5664M-34.2246 269.736V314.529M-34.2246 269.736H4.5664M-34.2246 314.529V359.314M-34.2246 314.529H4.5664M-34.2246 359.314V404.107M-34.2246 359.314H4.5664M-34.2246 404.107V448.893M-34.2246 404.107H4.5664M-34.2246 448.893V493.686M-34.2246 448.893H4.5664M-34.2246 493.686V538.471M-34.2246 493.686H4.5664M-34.2246 538.471V583.264M-34.2246 538.471H4.5664M-34.2246 583.264V628.05M-34.2246 583.264H4.5664M-34.2246 628.05V672.843M-34.2246 628.05H4.5664M-34.2246 672.843V717.629M-34.2246 672.843H4.5664M-34.2246 717.629V762.421M-34.2246 717.629H4.5664M-34.2246 762.421V807.207M-34.2246 762.421H4.5664M-34.2246 807.207V852M-34.2246 807.207H4.5664M-34.2246 852H4.5664M4.5664 1V45.7893M4.5664 1H43.3673M4.5664 45.7893V90.5786M4.5664 45.7893H43.3673M4.5664 90.5786V135.369M4.5664 90.5786H43.3673M4.5664 135.369V180.158M4.5664 135.369H43.3673M4.5664 180.158V224.947M4.5664 180.158H43.3673M4.5664 224.947V269.736M4.5664 224.947H43.3673M4.5664 269.736V314.529M4.5664 269.736H43.3673M4.5664 314.529V359.314M4.5664 314.529H43.3673M4.5664 359.314V404.107M4.5664 359.314H43.3673M4.5664 404.107V448.893M4.5664 404.107H43.3673M4.5664 448.893V493.686M4.5664 448.893H43.3673M4.5664 493.686V538.471M4.5664 493.686H43.3673M4.5664 538.471V583.264M4.5664 538.471H43.3673M4.5664 583.264V628.05M4.5664 583.264H43.3673M4.5664 628.05V672.843M4.5664 628.05H43.3673M4.5664 672.843V717.629M4.5664 672.843H43.3673M4.5664 717.629V762.421M4.5664 717.629H43.3673M4.5664 762.421V807.207M4.5664 762.421H43.3673M4.5664 807.207V852M4.5664 807.207H43.3673M4.5664 852H43.3673M43.3673 1V45.7893M43.3673 1H82.1582M43.3673 45.7893V90.5786M43.3673 45.7893H82.1582M43.3673 90.5786V135.369M43.3673 90.5786H82.1582M43.3673 135.369V180.158M43.3673 135.369H82.1582M43.3673 180.158V224.947M43.3673 180.158H82.1582M43.3673 224.947V269.736M43.3673 224.947H82.1582M43.3673 269.736V314.529M43.3673 269.736H82.1582M43.3673 314.529V359.314M43.3673 314.529H82.1582M43.3673 359.314V404.107M43.3673 359.314H82.1582M43.3673 404.107V448.893M43.3673 404.107H82.1582M43.3673 448.893V493.686M43.3673 448.893H82.1582M43.3673 493.686V538.471M43.3673 493.686H82.1582M43.3673 538.471V583.264M43.3673 538.471H82.1582M43.3673 583.264V628.05M43.3673 583.264H82.1582M43.3673 628.05V672.843M43.3673 628.05H82.1582M43.3673 672.843V717.629M43.3673 672.843H82.1582M43.3673 717.629V762.421M43.3673 717.629H82.1582M43.3673 762.421V807.207M43.3673 762.421H82.1582M43.3673 807.207V852M43.3673 807.207H82.1582M43.3673 852H82.1582M82.1582 1V45.7893M82.1582 1H120.959M82.1582 45.7893V90.5786M82.1582 45.7893H120.959M82.1582 90.5786V135.369M82.1582 90.5786H120.959M82.1582 135.369V180.158M82.1582 135.369H120.959M82.1582 180.158V224.947M82.1582 180.158H120.959M82.1582 224.947V269.736M82.1582 224.947H120.959M82.1582 269.736V314.529M82.1582 269.736H120.959M82.1582 314.529V359.314M82.1582 314.529H120.959M82.1582 359.314V404.107M82.1582 359.314H120.959M82.1582 404.107V448.893M82.1582 404.107H120.959M82.1582 448.893V493.686M82.1582 448.893H120.959M82.1582 493.686V538.471M82.1582 493.686H120.959M82.1582 538.471V583.264M82.1582 538.471H120.959M82.1582 583.264V628.05M82.1582 583.264H120.959M82.1582 628.05V672.843M82.1582 628.05H120.959M82.1582 672.843V717.629M82.1582 672.843H120.959M82.1582 717.629V762.421M82.1582 717.629H120.959M82.1582 762.421V807.207M82.1582 762.421H120.959M82.1582 807.207V852M82.1582 807.207H120.959M82.1582 852H120.959M120.959 1V45.7893M120.959 1H159.75M120.959 45.7893V90.5786M120.959 45.7893H159.75M120.959 90.5786V135.369M120.959 90.5786H159.75M120.959 135.369V180.158M120.959 135.369H159.75M120.959 180.158V224.947M120.959 180.158H159.75M120.959 224.947V269.736M120.959 224.947H159.75M120.959 269.736V314.529M120.959 269.736H159.75M120.959 314.529V359.314M120.959 314.529H159.75M120.959 359.314V404.107M120.959 359.314H159.75M120.959 404.107V448.893M120.959 404.107H159.75M120.959 448.893V493.686M120.959 448.893H159.75M120.959 493.686V538.471M120.959 493.686H159.75M120.959 538.471V583.264M120.959 538.471H159.75M120.959 583.264V628.05M120.959 583.264H159.75M120.959 628.05V672.843M120.959 628.05H159.75M120.959 672.843V717.629M120.959 672.843H159.75M120.959 717.629V762.421M120.959 717.629H159.75M120.959 762.421V807.207M120.959 762.421H159.75M120.959 807.207V852M120.959 807.207H159.75M120.959 852H159.75M159.75 1V45.7893M159.75 1H198.541M159.75 45.7893V90.5786M159.75 45.7893H198.541M159.75 90.5786V135.369M159.75 90.5786H198.541M159.75 135.369V180.158M159.75 135.369H198.541M159.75 180.158V224.947M159.75 180.158H198.541M159.75 224.947V269.736M159.75 224.947H198.541M159.75 269.736V314.529M159.75 269.736H198.541M159.75 314.529V359.314M159.75 314.529H198.541M159.75 359.314V404.107M159.75 359.314H198.541M159.75 404.107V448.893M159.75 404.107H198.541M159.75 448.893V493.686M159.75 448.893H198.541M159.75 493.686V538.471M159.75 493.686H198.541M159.75 538.471V583.264M159.75 538.471H198.541M159.75 583.264V628.05M159.75 583.264H198.541M159.75 628.05V672.843M159.75 628.05H198.541M159.75 672.843V717.629M159.75 672.843H198.541M159.75 717.629V762.421M159.75 717.629H198.541M159.75 762.421V807.207M159.75 762.421H198.541M159.75 807.207V852M159.75 807.207H198.541M159.75 852H198.541M198.541 1V45.7893M198.541 1H237.342M198.541 45.7893V90.5786M198.541 45.7893H237.342M198.541 90.5786V135.369M198.541 90.5786H237.342M198.541 135.369V180.158M198.541 135.369H237.342M198.541 180.158V224.947M198.541 180.158H237.342M198.541 224.947V269.736M198.541 224.947H237.342M198.541 269.736V314.529M198.541 269.736H237.342M198.541 314.529V359.314M198.541 314.529H237.342M198.541 359.314V404.107M198.541 359.314H237.342M198.541 404.107V448.893M198.541 404.107H237.342M198.541 448.893V493.686M198.541 448.893H237.342M198.541 493.686V538.471M198.541 493.686H237.342M198.541 538.471V583.264M198.541 538.471H237.342M198.541 583.264V628.05M198.541 583.264H237.342M198.541 628.05V672.843M198.541 628.05H237.342M198.541 672.843V717.629M198.541 672.843H237.342M198.541 717.629V762.421M198.541 717.629H237.342M198.541 762.421V807.207M198.541 762.421H237.342M198.541 807.207V852M198.541 807.207H237.342M198.541 852H237.342M237.342 1V45.7893M237.342 1H276.133M237.342 45.7893V90.5786M237.342 45.7893H276.133M237.342 90.5786V135.369M237.342 90.5786H276.133M237.342 135.369V180.158M237.342 135.369H276.133M237.342 180.158V224.947M237.342 180.158H276.133M237.342 224.947V269.736M237.342 224.947H276.133M237.342 269.736V314.529M237.342 269.736H276.133M237.342 314.529V359.314M237.342 314.529H276.133M237.342 359.314V404.107M237.342 359.314H276.133M237.342 404.107V448.893M237.342 404.107H276.133M237.342 448.893V493.686M237.342 448.893H276.133M237.342 493.686V538.471M237.342 493.686H276.133M237.342 538.471V583.264M237.342 538.471H276.133M237.342 583.264V628.05M237.342 583.264H276.133M237.342 628.05V672.843M237.342 628.05H276.133M237.342 672.843V717.629M237.342 672.843H276.133M237.342 717.629V762.421M237.342 717.629H276.133M237.342 762.421V807.207M237.342 762.421H276.133M237.342 807.207V852M237.342 807.207H276.133M237.342 852H276.133M276.133 1V45.7893M276.133 1H314.934M276.133 45.7893V90.5786M276.133 45.7893H314.934M276.133 90.5786V135.369M276.133 90.5786H314.934M276.133 135.369V180.158M276.133 135.369H314.934M276.133 180.158V224.947M276.133 180.158H314.934M276.133 224.947V269.736M276.133 224.947H314.934M276.133 269.736V314.529M276.133 269.736H314.934M276.133 314.529V359.314M276.133 314.529H314.934M276.133 359.314V404.107M276.133 359.314H314.934M276.133 404.107V448.893M276.133 404.107H314.934M276.133 448.893V493.686M276.133 448.893H314.934M276.133 493.686V538.471M276.133 493.686H314.934M276.133 538.471V583.264M276.133 538.471H314.934M276.133 583.264V628.05M276.133 583.264H314.934M276.133 628.05V672.843M276.133 628.05H314.934M276.133 672.843V717.629M276.133 672.843H314.934M276.133 717.629V762.421M276.133 717.629H314.934M276.133 762.421V807.207M276.133 762.421H314.934M276.133 807.207V852M276.133 807.207H314.934M276.133 852H314.934M314.934 1V45.7893M314.934 1H353.725M314.934 45.7893V90.5786M314.934 45.7893H353.725M314.934 90.5786V135.369M314.934 90.5786H353.725M314.934 135.369V180.158M314.934 135.369H353.725M314.934 180.158V224.947M314.934 180.158H353.725M314.934 224.947V269.736M314.934 224.947H353.725M314.934 269.736V314.529M314.934 269.736H353.725M314.934 314.529V359.314M314.934 314.529H353.725M314.934 359.314V404.107M314.934 359.314H353.725M314.934 404.107V448.893M314.934 404.107H353.725M314.934 448.893V493.686M314.934 448.893H353.725M314.934 493.686V538.471M314.934 493.686H353.725M314.934 538.471V583.264M314.934 538.471H353.725M314.934 583.264V628.05M314.934 583.264H353.725M314.934 628.05V672.843M314.934 628.05H353.725M314.934 672.843V717.629M314.934 672.843H353.725M314.934 717.629V762.421M314.934 717.629H353.725M314.934 762.421V807.207M314.934 762.421H353.725M314.934 807.207V852M314.934 807.207H353.725M314.934 852H353.725M353.725 1V45.7893M353.725 1H392.525M353.725 45.7893V90.5786M353.725 45.7893H392.525M353.725 90.5786V135.369M353.725 90.5786H392.525M353.725 135.369V180.158M353.725 135.369H392.525M353.725 180.158V224.947M353.725 180.158H392.525M353.725 224.947V269.736M353.725 224.947H392.525M353.725 269.736V314.529M353.725 269.736H392.525M353.725 314.529V359.314M353.725 314.529H392.525M353.725 359.314V404.107M353.725 359.314H392.525M353.725 404.107V448.893M353.725 404.107H392.525M353.725 448.893V493.686M353.725 448.893H392.525M353.725 493.686V538.471M353.725 493.686H392.525M353.725 538.471V583.264M353.725 538.471H392.525M353.725 583.264V628.05M353.725 583.264H392.525M353.725 628.05V672.843M353.725 628.05H392.525M353.725 672.843V717.629M353.725 672.843H392.525M353.725 717.629V762.421M353.725 717.629H392.525M353.725 762.421V807.207M353.725 762.421H392.525M353.725 807.207V852M353.725 807.207H392.525M353.725 852H392.525M392.525 1V45.7893M392.525 1H431.316M392.525 45.7893V90.5786M392.525 45.7893H431.316M392.525 90.5786V135.369M392.525 90.5786H431.316M392.525 135.369V180.158M392.525 135.369H431.316M392.525 180.158V224.947M392.525 180.158H431.316M392.525 224.947V269.736M392.525 224.947H431.316M392.525 269.736V314.529M392.525 269.736H431.316M392.525 314.529V359.314M392.525 314.529H431.316M392.525 359.314V404.107M392.525 359.314H431.316M392.525 404.107V448.893M392.525 404.107H431.316M392.525 448.893V493.686M392.525 448.893H431.316M392.525 493.686V538.471M392.525 493.686H431.316M392.525 538.471V583.264M392.525 538.471H431.316M392.525 583.264V628.05M392.525 583.264H431.316M392.525 628.05V672.843M392.525 628.05H431.316M392.525 672.843V717.629M392.525 672.843H431.316M392.525 717.629V762.421M392.525 717.629H431.316M392.525 762.421V807.207M392.525 762.421H431.316M392.525 807.207V852M392.525 807.207H431.316M392.525 852H431.316M431.316 1V45.7893M431.316 1H470.117M431.316 45.7893V90.5786M431.316 45.7893H470.117M431.316 90.5786V135.369M431.316 90.5786H470.117M431.316 135.369V180.158M431.316 135.369H470.117M431.316 180.158V224.947M431.316 180.158H470.117M431.316 224.947V269.736M431.316 224.947H470.117M431.316 269.736V314.529M431.316 269.736H470.117M431.316 314.529V359.314M431.316 314.529H470.117M431.316 359.314V404.107M431.316 359.314H470.117M431.316 404.107V448.893M431.316 404.107H470.117M431.316 448.893V493.686M431.316 448.893H470.117M431.316 493.686V538.471M431.316 493.686H470.117M431.316 538.471V583.264M431.316 538.471H470.117M431.316 583.264V628.05M431.316 583.264H470.117M431.316 628.05V672.843M431.316 628.05H470.117M431.316 672.843V717.629M431.316 672.843H470.117M431.316 717.629V762.421M431.316 717.629H470.117M431.316 762.421V807.207M431.316 762.421H470.117M431.316 807.207V852M431.316 807.207H470.117M431.316 852H470.117M470.117 1V45.7893M470.117 1H508.908M470.117 45.7893V90.5786M470.117 45.7893H508.908M470.117 90.5786V135.369M470.117 90.5786H508.908M470.117 135.369V180.158M470.117 135.369H508.908M470.117 180.158V224.947M470.117 180.158H508.908M470.117 224.947V269.736M470.117 224.947H508.908M470.117 269.736V314.529M470.117 269.736H508.908M470.117 314.529V359.314M470.117 314.529H508.908M470.117 359.314V404.107M470.117 359.314H508.908M470.117 404.107V448.893M470.117 404.107H508.908M470.117 448.893V493.686M470.117 448.893H508.908M470.117 493.686V538.471M470.117 493.686H508.908M470.117 538.471V583.264M470.117 538.471H508.908M470.117 583.264V628.05M470.117 583.264H508.908M470.117 628.05V672.843M470.117 628.05H508.908M470.117 672.843V717.629M470.117 672.843H508.908M470.117 717.629V762.421M470.117 717.629H508.908M470.117 762.421V807.207M470.117 762.421H508.908M470.117 807.207V852M470.117 807.207H508.908M470.117 852H508.908M508.908 1V45.7893M508.908 1H547.709M508.908 45.7893V90.5786M508.908 45.7893H547.709M508.908 90.5786V135.369M508.908 90.5786H547.709M508.908 135.369V180.158M508.908 135.369H547.709M508.908 180.158V224.947M508.908 180.158H547.709M508.908 224.947V269.736M508.908 224.947H547.709M508.908 269.736V314.529M508.908 269.736H547.709M508.908 314.529V359.314M508.908 314.529H547.709M508.908 359.314V404.107M508.908 359.314H547.709M508.908 404.107V448.893M508.908 404.107H547.709M508.908 448.893V493.686M508.908 448.893H547.709M508.908 493.686V538.471M508.908 493.686H547.709M508.908 538.471V583.264M508.908 538.471H547.709M508.908 583.264V628.05M508.908 583.264H547.709M508.908 628.05V672.843M508.908 628.05H547.709M508.908 672.843V717.629M508.908 672.843H547.709M508.908 717.629V762.421M508.908 717.629H547.709M508.908 762.421V807.207M508.908 762.421H547.709M508.908 807.207V852M508.908 807.207H547.709M508.908 852H547.709M547.709 1V45.7893M547.709 1H586.5M547.709 45.7893V90.5786M547.709 45.7893H586.5M547.709 90.5786V135.369M547.709 90.5786H586.5M547.709 135.369V180.158M547.709 135.369H586.5M547.709 180.158V224.947M547.709 180.158H586.5M547.709 224.947V269.736M547.709 224.947H586.5M547.709 269.736V314.529M547.709 269.736H586.5M547.709 314.529V359.314M547.709 314.529H586.5M547.709 359.314V404.107M547.709 359.314H586.5M547.709 404.107V448.893M547.709 404.107H586.5M547.709 448.893V493.686M547.709 448.893H586.5M547.709 493.686V538.471M547.709 493.686H586.5M547.709 538.471V583.264M547.709 538.471H586.5M547.709 583.264V628.05M547.709 583.264H586.5M547.709 628.05V672.843M547.709 628.05H586.5M547.709 672.843V717.629M547.709 672.843H586.5M547.709 717.629V762.421M547.709 717.629H586.5M547.709 762.421V807.207M547.709 762.421H586.5M547.709 807.207V852M547.709 807.207H586.5M547.709 852H586.5M586.5 1V45.7893M586.5 1H625.291M586.5 45.7893V90.5786M586.5 45.7893H625.291M586.5 90.5786V135.369M586.5 90.5786H625.291M586.5 135.369V180.158M586.5 135.369H625.291M586.5 180.158V224.947M586.5 180.158H625.291M586.5 224.947V269.736M586.5 224.947H625.291M586.5 269.736V314.529M586.5 269.736H625.291M586.5 314.529V359.314M586.5 314.529H625.291M586.5 359.314V404.107M586.5 359.314H625.291M586.5 404.107V448.893M586.5 404.107H625.291M586.5 448.893V493.686M586.5 448.893H625.291M586.5 493.686V538.471M586.5 493.686H625.291M586.5 538.471V583.264M586.5 538.471H625.291M586.5 583.264V628.05M586.5 583.264H625.291M586.5 628.05V672.843M586.5 628.05H625.291M586.5 672.843V717.629M586.5 672.843H625.291M586.5 717.629V762.421M586.5 717.629H625.291M586.5 762.421V807.207M586.5 762.421H625.291M586.5 807.207V852M586.5 807.207H625.291M586.5 852H625.291M625.291 1V45.7893M625.291 1H664.092M625.291 45.7893V90.5786M625.291 45.7893H664.092M625.291 90.5786V135.369M625.291 90.5786H664.092M625.291 135.369V180.158M625.291 135.369H664.092M625.291 180.158V224.947M625.291 180.158H664.092M625.291 224.947V269.736M625.291 224.947H664.092M625.291 269.736V314.529M625.291 269.736H664.092M625.291 314.529V359.314M625.291 314.529H664.092M625.291 359.314V404.107M625.291 359.314H664.092M625.291 404.107V448.893M625.291 404.107H664.092M625.291 448.893V493.686M625.291 448.893H664.092M625.291 493.686V538.471M625.291 493.686H664.092M625.291 538.471V583.264M625.291 538.471H664.092M625.291 583.264V628.05M625.291 583.264H664.092M625.291 628.05V672.843M625.291 628.05H664.092M625.291 672.843V717.629M625.291 672.843H664.092M625.291 717.629V762.421M625.291 717.629H664.092M625.291 762.421V807.207M625.291 762.421H664.092M625.291 807.207V852M625.291 807.207H664.092M625.291 852H664.092M664.092 1V45.7893M664.092 1H702.883M664.092 45.7893V90.5786M664.092 45.7893H702.883M664.092 90.5786V135.369M664.092 90.5786H702.883M664.092 135.369V180.158M664.092 135.369H702.883M664.092 180.158V224.947M664.092 180.158H702.883M664.092 224.947V269.736M664.092 224.947H702.883M664.092 269.736V314.529M664.092 269.736H702.883M664.092 314.529V359.314M664.092 314.529H702.883M664.092 359.314V404.107M664.092 359.314H702.883M664.092 404.107V448.893M664.092 404.107H702.883M664.092 448.893V493.686M664.092 448.893H702.883M664.092 493.686V538.471M664.092 493.686H702.883M664.092 538.471V583.264M664.092 538.471H702.883M664.092 583.264V628.05M664.092 583.264H702.883M664.092 628.05V672.843M664.092 628.05H702.883M664.092 672.843V717.629M664.092 672.843H702.883M664.092 717.629V762.421M664.092 717.629H702.883M664.092 762.421V807.207M664.092 762.421H702.883M664.092 807.207V852M664.092 807.207H702.883M664.092 852H702.883M702.883 1V45.7893M702.883 1H741.684M702.883 45.7893V90.5786M702.883 45.7893H741.684M702.883 90.5786V135.369M702.883 90.5786H741.684M702.883 135.369V180.158M702.883 135.369H741.684M702.883 180.158V224.947M702.883 180.158H741.684M702.883 224.947V269.736M702.883 224.947H741.684M702.883 269.736V314.529M702.883 269.736H741.684M702.883 314.529V359.314M702.883 314.529H741.684M702.883 359.314V404.107M702.883 359.314H741.684M702.883 404.107V448.893M702.883 404.107H741.684M702.883 448.893V493.686M702.883 448.893H741.684M702.883 493.686V538.471M702.883 493.686H741.684M702.883 538.471V583.264M702.883 538.471H741.684M702.883 583.264V628.05M702.883 583.264H741.684M702.883 628.05V672.843M702.883 628.05H741.684M702.883 672.843V717.629M702.883 672.843H741.684M702.883 717.629V762.421M702.883 717.629H741.684M702.883 762.421V807.207M702.883 762.421H741.684M702.883 807.207V852M702.883 807.207H741.684M702.883 852H741.684M741.684 1V45.7893M741.684 1H780.475M741.684 45.7893V90.5786M741.684 45.7893H780.475M741.684 90.5786V135.369M741.684 90.5786H780.475M741.684 135.369V180.158M741.684 135.369H780.475M741.684 180.158V224.947M741.684 180.158H780.475M741.684 224.947V269.736M741.684 224.947H780.475M741.684 269.736V314.529M741.684 269.736H780.475M741.684 314.529V359.314M741.684 314.529H780.475M741.684 359.314V404.107M741.684 359.314H780.475M741.684 404.107V448.893M741.684 404.107H780.475M741.684 448.893V493.686M741.684 448.893H780.475M741.684 493.686V538.471M741.684 493.686H780.475M741.684 538.471V583.264M741.684 538.471H780.475M741.684 583.264V628.05M741.684 583.264H780.475M741.684 628.05V672.843M741.684 628.05H780.475M741.684 672.843V717.629M741.684 672.843H780.475M741.684 717.629V762.421M741.684 717.629H780.475M741.684 762.421V807.207M741.684 762.421H780.475M741.684 807.207V852M741.684 807.207H780.475M741.684 852H780.475M780.475 1V45.7893M780.475 1H819.275M780.475 45.7893V90.5786M780.475 45.7893H819.275M780.475 90.5786V135.369M780.475 90.5786H819.275M780.475 135.369V180.158M780.475 135.369H819.275M780.475 180.158V224.947M780.475 180.158H819.275M780.475 224.947V269.736M780.475 224.947H819.275M780.475 269.736V314.529M780.475 269.736H819.275M780.475 314.529V359.314M780.475 314.529H819.275M780.475 359.314V404.107M780.475 359.314H819.275M780.475 404.107V448.893M780.475 404.107H819.275M780.475 448.893V493.686M780.475 448.893H819.275M780.475 493.686V538.471M780.475 493.686H819.275M780.475 538.471V583.264M780.475 538.471H819.275M780.475 583.264V628.05M780.475 583.264H819.275M780.475 628.05V672.843M780.475 628.05H819.275M780.475 672.843V717.629M780.475 672.843H819.275M780.475 717.629V762.421M780.475 717.629H819.275M780.475 762.421V807.207M780.475 762.421H819.275M780.475 807.207V852M780.475 807.207H819.275M780.475 852H819.275M819.275 1V45.7893M819.275 1H858.066M819.275 45.7893V90.5786M819.275 45.7893H858.066M819.275 90.5786V135.369M819.275 90.5786H858.066M819.275 135.369V180.158M819.275 135.369H858.066M819.275 180.158V224.947M819.275 180.158H858.066M819.275 224.947V269.736M819.275 224.947H858.066M819.275 269.736V314.529M819.275 269.736H858.066M819.275 314.529V359.314M819.275 314.529H858.066M819.275 359.314V404.107M819.275 359.314H858.066M819.275 404.107V448.893M819.275 404.107H858.066M819.275 448.893V493.686M819.275 448.893H858.066M819.275 493.686V538.471M819.275 493.686H858.066M819.275 538.471V583.264M819.275 538.471H858.066M819.275 583.264V628.05M819.275 583.264H858.066M819.275 628.05V672.843M819.275 628.05H858.066M819.275 672.843V717.629M819.275 672.843H858.066M819.275 717.629V762.421M819.275 717.629H858.066M819.275 762.421V807.207M819.275 762.421H858.066M819.275 807.207V852M819.275 807.207H858.066M819.275 852H858.066M858.066 1V45.7893M858.066 1H896.867M858.066 45.7893V90.5786M858.066 45.7893H896.867M858.066 90.5786V135.369M858.066 90.5786H896.867M858.066 135.369V180.158M858.066 135.369H896.867M858.066 180.158V224.947M858.066 180.158H896.867M858.066 224.947V269.736M858.066 224.947H896.867M858.066 269.736V314.529M858.066 269.736H896.867M858.066 314.529V359.314M858.066 314.529H896.867M858.066 359.314V404.107M858.066 359.314H896.867M858.066 404.107V448.893M858.066 404.107H896.867M858.066 448.893V493.686M858.066 448.893H896.867M858.066 493.686V538.471M858.066 493.686H896.867M858.066 538.471V583.264M858.066 538.471H896.867M858.066 583.264V628.05M858.066 583.264H896.867M858.066 628.05V672.843M858.066 628.05H896.867M858.066 672.843V717.629M858.066 672.843H896.867M858.066 717.629V762.421M858.066 717.629H896.867M858.066 762.421V807.207M858.066 762.421H896.867M858.066 807.207V852M858.066 807.207H896.867M858.066 852H896.867M896.867 1V45.7893M896.867 1H935.658M896.867 45.7893V90.5786M896.867 45.7893H935.658M896.867 90.5786V135.369M896.867 90.5786H935.658M896.867 135.369V180.158M896.867 135.369H935.658M896.867 180.158V224.947M896.867 180.158H935.658M896.867 224.947V269.736M896.867 224.947H935.658M896.867 269.736V314.529M896.867 269.736H935.658M896.867 314.529V359.314M896.867 314.529H935.658M896.867 359.314V404.107M896.867 359.314H935.658M896.867 404.107V448.893M896.867 404.107H935.658M896.867 448.893V493.686M896.867 448.893H935.658M896.867 493.686V538.471M896.867 493.686H935.658M896.867 538.471V583.264M896.867 538.471H935.658M896.867 583.264V628.05M896.867 583.264H935.658M896.867 628.05V672.843M896.867 628.05H935.658M896.867 672.843V717.629M896.867 672.843H935.658M896.867 717.629V762.421M896.867 717.629H935.658M896.867 762.421V807.207M896.867 762.421H935.658M896.867 807.207V852M896.867 807.207H935.658M896.867 852H935.658M935.658 1V45.7893M935.658 1H974.459M935.658 45.7893V90.5786M935.658 45.7893H974.459M935.658 90.5786V135.369M935.658 90.5786H974.459M935.658 135.369V180.158M935.658 135.369H974.459M935.658 180.158V224.947M935.658 180.158H974.459M935.658 224.947V269.736M935.658 224.947H974.459M935.658 269.736V314.529M935.658 269.736H974.459M935.658 314.529V359.314M935.658 314.529H974.459M935.658 359.314V404.107M935.658 359.314H974.459M935.658 404.107V448.893M935.658 404.107H974.459M935.658 448.893V493.686M935.658 448.893H974.459M935.658 493.686V538.471M935.658 493.686H974.459M935.658 538.471V583.264M935.658 538.471H974.459M935.658 583.264V628.05M935.658 583.264H974.459M935.658 628.05V672.843M935.658 628.05H974.459M935.658 672.843V717.629M935.658 672.843H974.459M935.658 717.629V762.421M935.658 717.629H974.459M935.658 762.421V807.207M935.658 762.421H974.459M935.658 807.207V852M935.658 807.207H974.459M935.658 852H974.459M974.459 1V45.7893M974.459 1H1013.25M974.459 45.7893V90.5786M974.459 45.7893H1013.25M974.459 90.5786V135.369M974.459 90.5786H1013.25M974.459 135.369V180.158M974.459 135.369H1013.25M974.459 180.158V224.947M974.459 180.158H1013.25M974.459 224.947V269.736M974.459 224.947H1013.25M974.459 269.736V314.529M974.459 269.736H1013.25M974.459 314.529V359.314M974.459 314.529H1013.25M974.459 359.314V404.107M974.459 359.314H1013.25M974.459 404.107V448.893M974.459 404.107H1013.25M974.459 448.893V493.686M974.459 448.893H1013.25M974.459 493.686V538.471M974.459 493.686H1013.25M974.459 538.471V583.264M974.459 538.471H1013.25M974.459 583.264V628.05M974.459 583.264H1013.25M974.459 628.05V672.843M974.459 628.05H1013.25M974.459 672.843V717.629M974.459 672.843H1013.25M974.459 717.629V762.421M974.459 717.629H1013.25M974.459 762.421V807.207M974.459 762.421H1013.25M974.459 807.207V852M974.459 807.207H1013.25M974.459 852H1013.25M1013.25 1V45.7893M1013.25 1H1052.04M1013.25 45.7893V90.5786M1013.25 45.7893H1052.04M1013.25 90.5786V135.369M1013.25 90.5786H1052.04M1013.25 135.369V180.158M1013.25 135.369H1052.04M1013.25 180.158V224.947M1013.25 180.158H1052.04M1013.25 224.947V269.736M1013.25 224.947H1052.04M1013.25 269.736V314.529M1013.25 269.736H1052.04M1013.25 314.529V359.314M1013.25 314.529H1052.04M1013.25 359.314V404.107M1013.25 359.314H1052.04M1013.25 404.107V448.893M1013.25 404.107H1052.04M1013.25 448.893V493.686M1013.25 448.893H1052.04M1013.25 493.686V538.471M1013.25 493.686H1052.04M1013.25 538.471V583.264M1013.25 538.471H1052.04M1013.25 583.264V628.05M1013.25 583.264H1052.04M1013.25 628.05V672.843M1013.25 628.05H1052.04M1013.25 672.843V717.629M1013.25 672.843H1052.04M1013.25 717.629V762.421M1013.25 717.629H1052.04M1013.25 762.421V807.207M1013.25 762.421H1052.04M1013.25 807.207V852M1013.25 807.207H1052.04M1013.25 852H1052.04M1052.04 1V45.7893M1052.04 1H1090.84M1052.04 45.7893V90.5786M1052.04 45.7893H1090.84M1052.04 90.5786V135.369M1052.04 90.5786H1090.84M1052.04 135.369V180.158M1052.04 135.369H1090.84M1052.04 180.158V224.947M1052.04 180.158H1090.84M1052.04 224.947V269.736M1052.04 224.947H1090.84M1052.04 269.736V314.529M1052.04 269.736H1090.84M1052.04 314.529V359.314M1052.04 314.529H1090.84M1052.04 359.314V404.107M1052.04 359.314H1090.84M1052.04 404.107V448.893M1052.04 404.107H1090.84M1052.04 448.893V493.686M1052.04 448.893H1090.84M1052.04 493.686V538.471M1052.04 493.686H1090.84M1052.04 538.471V583.264M1052.04 538.471H1090.84M1052.04 583.264V628.05M1052.04 583.264H1090.84M1052.04 628.05V672.843M1052.04 628.05H1090.84M1052.04 672.843V717.629M1052.04 672.843H1090.84M1052.04 717.629V762.421M1052.04 717.629H1090.84M1052.04 762.421V807.207M1052.04 762.421H1090.84M1052.04 807.207V852M1052.04 807.207H1090.84M1052.04 852H1090.84M1090.84 1V45.7893M1090.84 1H1129.63M1090.84 45.7893V90.5786M1090.84 45.7893H1129.63M1090.84 90.5786V135.369M1090.84 90.5786H1129.63M1090.84 135.369V180.158M1090.84 135.369H1129.63M1090.84 180.158V224.947M1090.84 180.158H1129.63M1090.84 224.947V269.736M1090.84 224.947H1129.63M1090.84 269.736V314.529M1090.84 269.736H1129.63M1090.84 314.529V359.314M1090.84 314.529H1129.63M1090.84 359.314V404.107M1090.84 359.314H1129.63M1090.84 404.107V448.893M1090.84 404.107H1129.63M1090.84 448.893V493.686M1090.84 448.893H1129.63M1090.84 493.686V538.471M1090.84 493.686H1129.63M1090.84 538.471V583.264M1090.84 538.471H1129.63M1090.84 583.264V628.05M1090.84 583.264H1129.63M1090.84 628.05V672.843M1090.84 628.05H1129.63M1090.84 672.843V717.629M1090.84 672.843H1129.63M1090.84 717.629V762.421M1090.84 717.629H1129.63M1090.84 762.421V807.207M1090.84 762.421H1129.63M1090.84 807.207V852M1090.84 807.207H1129.63M1090.84 852H1129.63M1129.63 1V45.7893M1129.63 1H1168.43M1129.63 45.7893V90.5786M1129.63 45.7893H1168.43M1129.63 90.5786V135.369M1129.63 90.5786H1168.43M1129.63 135.369V180.158M1129.63 135.369H1168.43M1129.63 180.158V224.947M1129.63 180.158H1168.43M1129.63 224.947V269.736M1129.63 224.947H1168.43M1129.63 269.736V314.529M1129.63 269.736H1168.43M1129.63 314.529V359.314M1129.63 314.529H1168.43M1129.63 359.314V404.107M1129.63 359.314H1168.43M1129.63 404.107V448.893M1129.63 404.107H1168.43M1129.63 448.893V493.686M1129.63 448.893H1168.43M1129.63 493.686V538.471M1129.63 493.686H1168.43M1129.63 538.471V583.264M1129.63 538.471H1168.43M1129.63 583.264V628.05M1129.63 583.264H1168.43M1129.63 628.05V672.843M1129.63 628.05H1168.43M1129.63 672.843V717.629M1129.63 672.843H1168.43M1129.63 717.629V762.421M1129.63 717.629H1168.43M1129.63 762.421V807.207M1129.63 762.421H1168.43M1129.63 807.207V852M1129.63 807.207H1168.43M1129.63 852H1168.43M1168.43 1V45.7893M1168.43 1H1207.22M1168.43 45.7893V90.5786M1168.43 45.7893H1207.22M1168.43 90.5786V135.369M1168.43 90.5786H1207.22M1168.43 135.369V180.158M1168.43 135.369H1207.22M1168.43 180.158V224.947M1168.43 180.158H1207.22M1168.43 224.947V269.736M1168.43 224.947H1207.22M1168.43 269.736V314.529M1168.43 269.736H1207.22M1168.43 314.529V359.314M1168.43 314.529H1207.22M1168.43 359.314V404.107M1168.43 359.314H1207.22M1168.43 404.107V448.893M1168.43 404.107H1207.22M1168.43 448.893V493.686M1168.43 448.893H1207.22M1168.43 493.686V538.471M1168.43 493.686H1207.22M1168.43 538.471V583.264M1168.43 538.471H1207.22M1168.43 583.264V628.05M1168.43 583.264H1207.22M1168.43 628.05V672.843M1168.43 628.05H1207.22M1168.43 672.843V717.629M1168.43 672.843H1207.22M1168.43 717.629V762.421M1168.43 717.629H1207.22M1168.43 762.421V807.207M1168.43 762.421H1207.22M1168.43 807.207V852M1168.43 807.207H1207.22M1168.43 852H1207.22M1207.22 1V45.7893M1207.22 1H1246.03M1207.22 45.7893V90.5786M1207.22 45.7893H1246.03M1207.22 90.5786V135.369M1207.22 90.5786H1246.03M1207.22 135.369V180.158M1207.22 135.369H1246.03M1207.22 180.158V224.947M1207.22 180.158H1246.03M1207.22 224.947V269.736M1207.22 224.947H1246.03M1207.22 269.736V314.529M1207.22 269.736H1246.03M1207.22 314.529V359.314M1207.22 314.529H1246.03M1207.22 359.314V404.107M1207.22 359.314H1246.03M1207.22 404.107V448.893M1207.22 404.107H1246.03M1207.22 448.893V493.686M1207.22 448.893H1246.03M1207.22 493.686V538.471M1207.22 493.686H1246.03M1207.22 538.471V583.264M1207.22 538.471H1246.03M1207.22 583.264V628.05M1207.22 583.264H1246.03M1207.22 628.05V672.843M1207.22 628.05H1246.03M1207.22 672.843V717.629M1207.22 672.843H1246.03M1207.22 717.629V762.421M1207.22 717.629H1246.03M1207.22 762.421V807.207M1207.22 762.421H1246.03M1207.22 807.207V852M1207.22 807.207H1246.03M1207.22 852H1246.03M1246.03 1V45.7893M1246.03 1H1284.82M1246.03 45.7893V90.5786M1246.03 45.7893H1284.82M1246.03 90.5786V135.369M1246.03 90.5786H1284.82M1246.03 135.369V180.158M1246.03 135.369H1284.82M1246.03 180.158V224.947M1246.03 180.158H1284.82M1246.03 224.947V269.736M1246.03 224.947H1284.82M1246.03 269.736V314.529M1246.03 269.736H1284.82M1246.03 314.529V359.314M1246.03 314.529H1284.82M1246.03 359.314V404.107M1246.03 359.314H1284.82M1246.03 404.107V448.893M1246.03 404.107H1284.82M1246.03 448.893V493.686M1246.03 448.893H1284.82M1246.03 493.686V538.471M1246.03 493.686H1284.82M1246.03 538.471V583.264M1246.03 538.471H1284.82M1246.03 583.264V628.05M1246.03 583.264H1284.82M1246.03 628.05V672.843M1246.03 628.05H1284.82M1246.03 672.843V717.629M1246.03 672.843H1284.82M1246.03 717.629V762.421M1246.03 717.629H1284.82M1246.03 762.421V807.207M1246.03 762.421H1284.82M1246.03 807.207V852M1246.03 807.207H1284.82M1246.03 852H1284.82M1284.82 1V45.7893M1284.82 1H1323.62M1284.82 45.7893V90.5786M1284.82 45.7893H1323.62M1284.82 90.5786V135.369M1284.82 90.5786H1323.62M1284.82 135.369V180.158M1284.82 135.369H1323.62M1284.82 180.158V224.947M1284.82 180.158H1323.62M1284.82 224.947V269.736M1284.82 224.947H1323.62M1284.82 269.736V314.529M1284.82 269.736H1323.62M1284.82 314.529V359.314M1284.82 314.529H1323.62M1284.82 359.314V404.107M1284.82 359.314H1323.62M1284.82 404.107V448.893M1284.82 404.107H1323.62M1284.82 448.893V493.686M1284.82 448.893H1323.62M1284.82 493.686V538.471M1284.82 493.686H1323.62M1284.82 538.471V583.264M1284.82 538.471H1323.62M1284.82 583.264V628.05M1284.82 583.264H1323.62M1284.82 628.05V672.843M1284.82 628.05H1323.62M1284.82 672.843V717.629M1284.82 672.843H1323.62M1284.82 717.629V762.421M1284.82 717.629H1323.62M1284.82 762.421V807.207M1284.82 762.421H1323.62M1284.82 807.207V852M1284.82 807.207H1323.62M1284.82 852H1323.62M1323.62 1V45.7893M1323.62 1H1362.41M1323.62 45.7893V90.5786M1323.62 45.7893H1362.41M1323.62 90.5786V135.369M1323.62 90.5786H1362.41M1323.62 135.369V180.158M1323.62 135.369H1362.41M1323.62 180.158V224.947M1323.62 180.158H1362.41M1323.62 224.947V269.736M1323.62 224.947H1362.41M1323.62 269.736V314.529M1323.62 269.736H1362.41M1323.62 314.529V359.314M1323.62 314.529H1362.41M1323.62 359.314V404.107M1323.62 359.314H1362.41M1323.62 404.107V448.893M1323.62 404.107H1362.41M1323.62 448.893V493.686M1323.62 448.893H1362.41M1323.62 493.686V538.471M1323.62 493.686H1362.41M1323.62 538.471V583.264M1323.62 538.471H1362.41M1323.62 583.264V628.05M1323.62 583.264H1362.41M1323.62 628.05V672.843M1323.62 628.05H1362.41M1323.62 672.843V717.629M1323.62 672.843H1362.41M1323.62 717.629V762.421M1323.62 717.629H1362.41M1323.62 762.421V807.207M1323.62 762.421H1362.41M1323.62 807.207V852M1323.62 807.207H1362.41M1323.62 852H1362.41M1362.41 1V45.7893M1362.41 1H1401.21M1362.41 45.7893V90.5786M1362.41 45.7893H1401.21M1362.41 90.5786V135.369M1362.41 90.5786H1401.21M1362.41 135.369V180.158M1362.41 135.369H1401.21M1362.41 180.158V224.947M1362.41 180.158H1401.21M1362.41 224.947V269.736M1362.41 224.947H1401.21M1362.41 269.736V314.529M1362.41 269.736H1401.21M1362.41 314.529V359.314M1362.41 314.529H1401.21M1362.41 359.314V404.107M1362.41 359.314H1401.21M1362.41 404.107V448.893M1362.41 404.107H1401.21M1362.41 448.893V493.686M1362.41 448.893H1401.21M1362.41 493.686V538.471M1362.41 493.686H1401.21M1362.41 538.471V583.264M1362.41 538.471H1401.21M1362.41 583.264V628.05M1362.41 583.264H1401.21M1362.41 628.05V672.843M1362.41 628.05H1401.21M1362.41 672.843V717.629M1362.41 672.843H1401.21M1362.41 717.629V762.421M1362.41 717.629H1401.21M1362.41 762.421V807.207M1362.41 762.421H1401.21M1362.41 807.207V852M1362.41 807.207H1401.21M1362.41 852H1401.21M1401.21 1V45.7893M1401.21 1L1419.42 19.147L1440 45.7893M1401.21 45.7893V90.5786M1401.21 45.7893H1440M1401.21 90.5786V135.369M1401.21 90.5786H1440M1401.21 135.369V180.158M1401.21 135.369H1440M1401.21 180.158V224.947M1401.21 180.158H1440M1401.21 224.947V269.736M1401.21 224.947H1440M1401.21 269.736V314.529M1401.21 269.736H1440M1401.21 314.529V359.314M1401.21 314.529H1440M1401.21 359.314V404.107M1401.21 359.314H1440M1401.21 404.107V448.893M1401.21 404.107H1440M1401.21 448.893V493.686M1401.21 448.893H1440M1401.21 493.686V538.471M1401.21 493.686H1440M1401.21 538.471V583.264M1401.21 538.471H1440M1401.21 583.264V628.05M1401.21 583.264H1440M1401.21 628.05V672.843M1401.21 628.05H1440M1401.21 672.843V717.629M1401.21 672.843H1440M1401.21 717.629V762.421M1401.21 717.629H1440M1401.21 762.421V807.207M1401.21 762.421H1440M1401.21 807.207V852M1401.21 807.207H1440M1401.21 852L1415.74 836.241L1440 807.207M1440 45.7893V90.5786M1440 90.5786V135.369M1440 135.369V180.158M1440 180.158V224.947M1440 224.947V269.736M1440 269.736V314.529M1440 314.529V359.314M1440 359.314V404.107M1440 404.107V448.893M1440 448.893V493.686M1440 493.686V538.471M1440 538.471V583.264M1440 583.264V628.05M1440 628.05V672.843M1440 672.843V717.629M1440 717.629V762.421M1440 762.421V807.207" stroke="url(#paint0_radial_21_433)" stroke-opacity="0.7" stroke-width="1.74474"/>
<defs>
<radialGradient id="paint0_radial_21_433" cx="0" cy="0" r="1" gradientUnits="userSpaceOnUse" gradientTransform="translate(586.5 426.496) rotate(90) scale(425.5 689.216)">
<stop stop-color="white" stop-opacity="0.7"/>
<stop offset="1" stop-color="white" stop-opacity="0.2"/>
</radialGradient>
</defs>
</svg>
