<svg width="290" height="182" viewBox="0 0 290 182" fill="none" xmlns="http://www.w3.org/2000/svg">
<path d="M36.6267 42.1235C28.8173 42.126 25.4626 50.7206 17.8203 51.942C14.407 52.4875 10.9244 51.4016 7.43706 51.3546C3.94968 51.3076 -0.221717 53.2323 0.515197 55.8235L67.0006 55.0617C60.1285 54.5193 53.7005 52.2242 48.7638 48.5503C45.1604 45.8264 41.7086 42.1219 36.6267 42.1235Z" fill="#F0F0F0"/>
<path d="M189.121 132.298C179.406 132.297 170.006 129.677 162.592 124.905C155.179 120.133 150.232 113.517 148.632 106.234L148.619 106.173L148.67 106.127C151.296 103.736 153.419 101.051 154.963 98.1669C153.126 99.9567 150.907 101.499 148.398 102.731L148.14 102.861L148.125 102.626C148.093 102.11 148.076 101.596 148.076 101.1C148.053 95.7954 149.821 90.5747 153.21 85.937C156.598 81.2994 161.495 77.3999 167.433 74.611C157.043 66.4159 151.251 55.4717 151.28 44.0907C151.28 19.779 177.308 4.40399e-05 209.3 4.40399e-05C221.498 -0.0130651 233.39 2.90074 243.281 8.32614C253.172 13.7515 260.557 21.4117 264.384 30.2147L264.436 30.3332L264.284 30.38C260.334 31.5956 256.698 32.1797 253.221 32.1512C257.184 33.0041 261.297 33.3822 265.414 33.2717L265.555 33.268L265.589 33.3725C266.739 36.8782 267.32 40.4777 267.319 44.0907C267.319 44.221 267.319 44.3513 267.317 44.4815C267.306 47.2908 268.074 50.0703 269.571 52.6389C271.068 55.2076 273.26 57.5076 276.005 59.3891C280.389 62.4213 283.858 66.1394 286.171 70.2878C288.485 74.4361 289.589 78.9162 289.407 83.4198C289.225 87.9233 287.761 92.3435 285.117 96.3761C282.473 100.409 278.711 103.958 274.09 106.78L274.006 106.831L273.907 106.798C267.839 104.705 263.613 102.369 260.735 99.5006C262.681 103.112 265.518 106.407 269.094 109.208L269.25 109.33L269.057 109.416C262.923 112.131 255.968 113.593 248.869 113.657C241.771 113.721 234.772 112.386 228.555 109.782C226.058 116.266 220.868 121.963 213.761 126.021C206.653 130.079 198.01 132.281 189.121 132.298Z" fill="#FEDC62"/>
<path d="M174.498 181.99C174.319 181.99 174.145 181.941 174.01 181.851C173.874 181.762 173.786 181.638 173.761 181.503C173.729 181.334 170.626 164.322 173.413 141.713C175.987 120.833 184.253 90.7578 209.014 66.0576C209.074 65.9984 209.148 65.9486 209.232 65.9111C209.317 65.8736 209.411 65.8491 209.508 65.8391C209.605 65.8291 209.704 65.8338 209.798 65.8528C209.893 65.8718 209.982 65.9048 210.06 65.95C210.138 65.9951 210.203 66.0515 210.253 66.1159C210.302 66.1802 210.334 66.2514 210.347 66.3252C210.36 66.399 210.354 66.4741 210.329 66.546C210.304 66.618 210.26 66.6856 210.201 66.7448C185.653 91.2316 177.454 121.086 174.898 141.819C172.127 164.297 175.206 181.176 175.237 181.344C175.252 181.424 175.244 181.506 175.214 181.584C175.184 181.662 175.132 181.734 175.062 181.795C174.992 181.856 174.905 181.906 174.808 181.939C174.711 181.973 174.605 181.99 174.498 181.99L174.498 181.99Z" fill="#3F3D56"/>
<path d="M186.876 98.7182C186.719 98.7183 186.565 98.6804 186.438 98.6101C186.31 98.5398 186.215 98.4406 186.166 98.3267C186.118 98.2129 186.118 98.0902 186.166 97.9763C186.215 97.8625 186.31 97.7632 186.437 97.6928C186.527 97.6432 195.586 92.6822 209.128 88.9133C221.647 85.4297 240.684 82.2715 260.282 87.0124C260.375 87.0349 260.462 87.0712 260.537 87.1192C260.612 87.1672 260.673 87.2259 260.718 87.292C260.763 87.3582 260.791 87.4304 260.799 87.5046C260.808 87.5788 260.797 87.6536 260.767 87.7245C260.737 87.7955 260.689 87.8613 260.626 87.9183C260.563 87.9752 260.486 88.0221 260.398 88.0562C260.311 88.0904 260.216 88.1112 260.119 88.1174C260.021 88.1237 259.923 88.1152 259.829 88.0926C240.633 83.4491 221.941 86.555 209.641 89.9779C196.292 93.6929 187.402 98.5611 187.314 98.6098C187.187 98.6803 187.034 98.7182 186.876 98.7182Z" fill="#3F3D56"/>
<path d="M36.4482 166.544L38.968 167.143L55.8769 126.074C55.1855 125.941 54.4528 126.013 53.8296 126.277C53.2064 126.541 52.7398 126.977 52.5259 127.494L36.4482 166.544Z" fill="#3F3D56"/>
<path d="M92.0206 112.972H80.8735V88.0684H92.0206C94.1532 88.0702 96.1977 88.7149 97.7057 89.8611C99.2137 91.0073 100.062 92.5613 100.064 94.1823V106.858C100.062 108.479 99.2137 110.033 97.7057 111.179C96.1977 112.326 94.1532 112.97 92.0206 112.972Z" fill="#2F2E41"/>
<path d="M90.4687 99.6308C90.0964 99.6305 89.7394 99.5179 89.4762 99.3178C89.2129 99.1177 89.0649 98.8464 89.0645 98.5635V89.3135H91.8729V98.5635C91.8725 98.8464 91.7244 99.1177 91.4611 99.3178C91.1979 99.5179 90.841 99.6305 90.4687 99.6308Z" fill="#3F3D56"/>
<path d="M93.845 111.015H85.6888C85.2188 111.015 84.7682 110.873 84.4358 110.62C84.1035 110.367 83.9165 110.025 83.916 109.668V105.959C83.9165 105.602 84.1035 105.259 84.4358 105.006C84.7682 104.754 85.2188 104.612 85.6888 104.611H93.845C94.315 104.612 94.7656 104.754 95.0979 105.006C95.4303 105.259 95.6172 105.602 95.6177 105.959V109.668C95.6172 110.025 95.4303 110.367 95.0979 110.62C94.7656 110.873 94.315 111.015 93.845 111.015Z" fill="#3F3D56"/>
<path d="M70.0632 85.4772C69.8715 85.4772 69.6857 85.4269 69.5374 85.3346C69.4455 85.2777 69.3701 85.207 69.3159 85.1269C69.2617 85.0468 69.2298 84.959 69.2223 84.8691C68.9593 81.6776 69.6887 78.4839 71.3515 75.5466C72.4782 73.5637 73.7744 72.2861 75.4306 71.5256C77.6402 70.5113 80.672 70.4303 83.7486 71.3034C85.5069 71.8023 86.7749 72.4545 87.6252 73.2971C88.7597 74.4214 89.1155 75.8638 89.3311 77.255C89.6563 79.3599 89.7326 81.4828 89.5593 83.598C89.5514 83.7073 89.5056 83.8131 89.4263 83.9045C89.3471 83.9959 89.2374 84.0697 89.1083 84.1183C88.9688 84.1701 88.8138 84.1933 88.6588 84.1856C88.5038 84.1778 88.3541 84.1394 88.2247 84.0741C88.1726 84.0481 88.1188 84.0242 88.0635 84.0023C87.7832 83.8955 87.4733 83.8414 87.1598 83.8444C86.8463 83.8474 86.5384 83.9075 86.2617 84.0197C86.0588 84.1111 85.8667 84.2158 85.6879 84.3327L84.5818 85.0134C84.4452 85.0957 84.2788 85.1444 84.1049 85.1527C83.9309 85.1611 83.7578 85.1288 83.6087 85.0602C82.8064 84.7137 81.9099 84.5125 80.9887 84.4722C79.7657 84.4375 78.5413 84.5051 77.3376 84.6736L70.1881 85.4702C70.1468 85.4748 70.105 85.4771 70.0632 85.4772Z" fill="#2F2E41"/>
<path d="M69.1085 176.112H65.2904L63.4741 164.918H69.1092L69.1085 176.112Z" fill="#FFB6B6"/>
<path d="M71.1628 181.622H68.4536L67.97 179.678L66.7315 181.622H59.546C59.2016 181.622 58.8661 181.538 58.5887 181.383C58.3113 181.228 58.1063 181.009 58.0038 180.76C57.9013 180.51 57.9066 180.241 58.019 179.994C58.1313 179.746 58.3447 179.533 58.6282 179.384L64.3663 176.372V174.406L70.4018 174.68L71.1628 181.622Z" fill="#2F2E41"/>
<path d="M113.048 173.629L109.529 174.754L102.146 164.97L107.341 163.311L113.048 173.629Z" fill="#FFB6B6"/>
<path d="M117.751 178.104L115.254 178.902L113.817 177.252L113.666 179.409L107.043 181.526C106.725 181.628 106.373 181.649 106.038 181.588C105.704 181.527 105.403 181.386 105.181 181.186C104.959 180.985 104.827 180.736 104.805 180.475C104.782 180.214 104.87 179.954 105.055 179.733L108.809 175.266L107.806 173.454L113.51 171.929L117.751 178.104Z" fill="#2F2E41"/>
<path d="M67.3244 99.8776L66.2303 111.019L58.9739 127.657L56.0596 126.37L60.0133 109.448L61.356 99.6865L67.3244 99.8776Z" fill="#FFB6B6"/>
<path d="M57.2816 130.084C58.9683 130.084 60.3356 129.045 60.3356 127.763C60.3356 126.481 58.9683 125.441 57.2816 125.441C55.5949 125.441 54.2275 126.481 54.2275 127.763C54.2275 129.045 55.5949 130.084 57.2816 130.084Z" fill="#FFB6B6"/>
<path d="M85.9443 112.71V115.783C85.9443 115.783 92.2027 124.166 89.6543 127.763L99.0503 147.299C99.0503 147.299 111.792 156.983 110.7 163.901L111.428 166.115L103.055 168.882L101.235 166.945L87.0364 148.405L75.0226 131.526L72.8382 151.449C72.8382 151.449 74.2945 166.945 70.2898 168.605L69.9258 171.096H61.4278V168.728C61.4278 168.728 58.276 160.304 60.0963 153.94L59.3682 127.099C59.3682 127.099 62.6447 115.753 66.6493 113.816L68.1055 111.049L85.9443 112.71Z" fill="#2F2E41"/>
<path d="M92.6314 91.4069L84.6958 88.5828L82.4053 85.5488L74.7029 85.8808L72.3722 88.7726L65.5165 89.8283L66.524 108.662C66.0751 109.253 65.9152 109.945 66.0723 110.617C66.3128 111.797 67.5344 110.869 66.3128 111.797C65.0912 112.726 64.1704 112.259 64.7835 113.073C65.3966 113.886 63.8887 115.155 63.8887 115.155C63.8887 115.155 83.3911 122.705 88.9005 113.073C88.9005 113.073 89.9868 110.255 88.1518 104.352C86.3168 98.4496 92.6314 91.4069 92.6314 91.4069Z" fill="#E4E4E4"/>
<path d="M67.7695 91.0276L65.5164 89.8281C65.5164 89.8281 62.4 90.8005 62.2949 92.7679C62.1898 94.7353 60.3984 100.623 60.3984 100.623L67.5127 103.53L67.7695 91.0276Z" fill="#E4E4E4"/>
<path d="M94.5052 100.806L93.4114 111.947L81.2684 125.8L78.3545 124.513L87.1944 110.377L88.5371 100.615L94.5052 100.806Z" fill="#FFB6B6"/>
<path d="M88.9194 92.0365L92.6313 91.4067C92.6313 91.4067 94.8679 91.9497 95.1733 94.5032C95.4787 97.0566 95.7349 101.501 95.7349 101.501L87.9452 105.855L86.0112 99.61L88.9194 92.0365Z" fill="#E4E4E4"/>
<path d="M79.2708 128.227C80.9575 128.227 82.3249 127.187 82.3249 125.905C82.3249 124.623 80.9575 123.584 79.2708 123.584C77.5841 123.584 76.2168 124.623 76.2168 125.905C76.2168 127.187 77.5841 128.227 79.2708 128.227Z" fill="#FFB6B6"/>
<path d="M77.8577 84.5547C81.7877 84.5547 84.9736 82.1331 84.9736 79.146C84.9736 76.1589 81.7877 73.7373 77.8577 73.7373C73.9276 73.7373 70.7417 76.1589 70.7417 79.146C70.7417 82.1331 73.9276 84.5547 77.8577 84.5547Z" fill="#FFB7B7"/>
<path d="M72.0615 78.3305H72.0611C71.1547 78.3302 70.2471 78.3293 69.3383 78.3278C69.23 78.3274 69.1229 78.3106 69.0233 78.2783C68.9237 78.246 68.8336 78.1989 68.7582 78.1398C68.6841 78.0819 68.6261 78.0132 68.5879 77.9379C68.5496 77.8625 68.5319 77.7821 68.5357 77.7014C68.6027 76.5552 69.0336 75.4384 69.7916 74.4463C70.5495 73.4542 71.6121 72.6162 72.8886 72.0038C74.2307 71.3817 75.7621 71.0349 77.3334 70.9971C78.9046 70.9593 80.4618 71.232 81.8529 71.7884C83.2441 72.3449 84.4216 73.166 85.2704 74.1717C86.1191 75.1774 86.6102 76.3333 86.6956 77.5264C86.7016 77.6069 86.6864 77.6876 86.651 77.7637C86.6156 77.8398 86.5606 77.9098 86.4892 77.9696C86.4179 78.0294 86.3316 78.0778 86.2354 78.112C86.1392 78.1462 86.035 78.1656 85.9289 78.1689C82.7797 78.2701 79.2864 78.3193 74.602 78.3285H74.5997C74.4403 78.3289 74.2843 78.2929 74.152 78.2254C74.0197 78.1579 73.9169 78.0618 73.857 77.9495L73.7817 77.8093C73.742 77.7354 73.6725 77.6731 73.5833 77.6312C73.494 77.5893 73.3896 77.5699 73.285 77.576C73.1803 77.582 73.0809 77.6131 73.0011 77.6648C72.9212 77.7165 72.8649 77.7861 72.8404 77.8637C72.7987 77.9968 72.6992 78.1153 72.5578 78.2001C72.4164 78.2848 72.2416 78.3308 72.0615 78.3305Z" fill="#2F2E41"/>
<path d="M87.9896 105.607C86.0772 104.239 85.2551 102.254 85.242 100.294C85.2269 98.0559 86.293 95.9297 87.6716 93.9833C88.5054 92.8062 89.4555 91.6797 90.4061 90.5559C90.7259 90.1778 89.9332 89.8282 89.615 90.2044C86.3986 94.0068 82.8567 98.5107 84.9309 103.184C85.4068 104.292 86.2349 105.293 87.3418 106.1C87.771 106.407 88.4201 105.915 87.9896 105.607H87.9896Z" fill="#3F3D56"/>
<path d="M36.4969 147.163C34.921 146.785 33.2369 146.753 31.6381 147.07C31.6344 147.071 31.6317 147.071 31.6281 147.072C30.389 147.317 29.2339 147.762 28.2415 148.377C28.1838 148.412 28.1291 148.448 28.0742 148.484C26.8168 149.304 25.8885 150.376 25.3955 151.578L18.5965 168.092C18.0907 169.314 18.0561 170.621 18.4969 171.858C18.5235 171.927 18.5502 171.997 18.577 172.066C18.907 172.886 19.4381 173.65 20.1424 174.319C20.1468 174.323 20.1503 174.327 20.1528 174.331C21.2521 175.368 22.7326 176.134 24.4058 176.53L37.2287 179.58L49.3198 150.213L36.4969 147.163Z" fill="#FEDC62"/>
<path d="M56.7168 126.274L40.2022 166.385C40.1502 166.511 40.1314 166.643 40.1468 166.774C40.1622 166.906 40.2114 167.033 40.2918 167.15C40.3722 167.267 40.482 167.371 40.6151 167.455C40.7482 167.54 40.9019 167.604 41.0675 167.643C41.233 167.682 41.4071 167.697 41.5799 167.685C41.7527 167.673 41.9207 167.635 42.0743 167.574C42.228 167.513 42.3643 167.43 42.4754 167.328C42.5865 167.227 42.6703 167.11 42.722 166.984L58.4053 128.892C58.6176 128.374 58.5608 127.815 58.2468 127.328C57.9327 126.841 57.3852 126.464 56.7168 126.274Z" fill="#3F3D56"/>
<path d="M36.1197 181.78C37.4255 181.78 38.4841 180.976 38.4841 179.983C38.4841 178.991 37.4255 178.186 36.1197 178.186C34.8139 178.186 33.7554 178.991 33.7554 179.983C33.7554 180.976 34.8139 181.78 36.1197 181.78Z" fill="#3F3D56"/>
<path d="M20.7213 178.117C22.0271 178.117 23.0856 177.313 23.0856 176.32C23.0856 175.328 22.0271 174.523 20.7213 174.523C19.4155 174.523 18.3569 175.328 18.3569 176.32C18.3569 177.313 19.4155 178.117 20.7213 178.117Z" fill="#3F3D56"/>
<path d="M31.6379 147.07C29.1891 152.906 22.7743 168.165 20.1525 174.331C20.15 174.327 20.1465 174.323 20.1421 174.32C19.4378 173.65 18.9067 172.886 18.5767 172.066C18.55 171.997 18.5233 171.928 18.4966 171.858C21.3076 165.158 26.0156 153.857 28.0739 148.484C28.1288 148.448 28.1836 148.412 28.2412 148.377C29.2336 147.762 30.3887 147.317 31.6278 147.073C31.6314 147.071 31.6341 147.072 31.6379 147.07Z" fill="#3F3D56"/>
<path d="M107.659 15.5093C104.056 12.7854 100.604 9.08094 95.5222 9.08252C87.7128 9.08494 84.3581 17.6796 76.7158 18.901C73.3025 19.4465 69.8199 18.3605 66.3326 18.3136C62.8452 18.2666 58.6738 20.1913 59.4107 22.7825L125.896 22.0207C119.024 21.4783 112.596 19.1832 107.659 15.5093Z" fill="#F0F0F0"/>
<path d="M255.733 4.14356C247.923 4.14598 244.569 12.7407 236.926 13.962C233.513 14.5075 230.03 13.4216 226.543 13.3746C223.056 13.3276 218.884 15.2523 219.621 17.8435L286.107 17.0817C279.234 16.5393 272.806 14.2442 267.87 10.5703C264.266 7.84642 260.815 4.14196 255.733 4.14356Z" fill="#F0F0F0"/>
</svg>
